<?xml version="1.0" encoding="UTF-8" standalone="no"?>
<!-- Created with Inkscape (http://www.inkscape.org/) -->

<svg
   width="512"
   height="512"
   viewBox="0 0 512 512"
   version="1.1"
   id="svg1"
   xml:space="preserve"
   inkscape:version="1.4 (86a8ad7, 2024-10-11)"
   sodipodi:docname="Sikil Logo.svg"
   xmlns:inkscape="http://www.inkscape.org/namespaces/inkscape"
   xmlns:sodipodi="http://sodipodi.sourceforge.net/DTD/sodipodi-0.dtd"
   xmlns:xlink="http://www.w3.org/1999/xlink"
   xmlns="http://www.w3.org/2000/svg"
   xmlns:svg="http://www.w3.org/2000/svg"><sodipodi:namedview
     id="namedview1"
     pagecolor="#ffffff"
     bordercolor="#000000"
     borderopacity="0.25"
     inkscape:showpageshadow="2"
     inkscape:pageopacity="0.0"
     inkscape:pagecheckerboard="0"
     inkscape:deskcolor="#d1d1d1"
     inkscape:document-units="px"
     inkscape:zoom="0.76373057"
     inkscape:cx="233.72117"
     inkscape:cy="284.7863"
     inkscape:window-width="1366"
     inkscape:window-height="745"
     inkscape:window-x="-8"
     inkscape:window-y="-8"
     inkscape:window-maximized="1"
     inkscape:current-layer="layer2"
     showguides="false" /><defs
     id="defs1"><inkscape:path-effect
       effect="skeletal"
       id="path-effect91"
       is_visible="true"
       lpeversion="1"
       pattern="m -41.995021,10.136248 c -0.963113,12.468641 3.569142,24.73585 12.408029,33.58272 8.849546,8.83479 21.1119997,13.370296 33.579596,12.40828 C 4.9547769,43.65962 0.42241661,31.393812 -8.4154248,22.547495 -17.257864,13.705066 -29.527216,9.1751614 -41.995021,10.136248 Z"
       copytype="repeated_stretched"
       prop_scale="1"
       scale_y_rel="false"
       spacing="0"
       normal_offset="0"
       tang_offset="0"
       prop_units="false"
       vertical_pattern="false"
       hide_knot="false"
       fuse_tolerance="0" /><inkscape:path-effect
       effect="skeletal"
       id="path-effect90"
       is_visible="true"
       lpeversion="1"
       pattern="M 44.1302,0.12191 C 32.199,-0.79969 20.4606,3.53724 11.995,11.99509 3.541,20.46318 -0.799,32.19714 0.1216,44.12733 12.0518,45.04801 23.7889,40.71105 32.2539,32.25409 40.7152,23.79282 45.0499,12.0524 44.1302,0.12191 Z"
       copytype="repeated_stretched"
       prop_scale="1"
       scale_y_rel="false"
       spacing="0"
       normal_offset="0"
       tang_offset="0"
       prop_units="false"
       vertical_pattern="false"
       hide_knot="false"
       fuse_tolerance="0" /><inkscape:path-effect
       effect="skeletal"
       id="path-effect89"
       is_visible="true"
       lpeversion="1"
       pattern="m -337.25215,56.24102 c 3.03324,16.234708 13.00782,30.333864 27.30689,38.598278 14.30859,8.245102 31.50136,9.839402 47.07663,4.350611 -3.03406,-16.232969 -13.00823,-30.330511 -27.30592,-38.594372 -14.3021,-8.257292 -31.50164,-9.842214 -47.0776,-4.354517 z"
       copytype="repeated_stretched"
       prop_scale="1"
       scale_y_rel="false"
       spacing="1"
       normal_offset="0"
       tang_offset="0"
       prop_units="false"
       vertical_pattern="false"
       hide_knot="false"
       fuse_tolerance="0" /><inkscape:path-effect
       effect="skeletal"
       id="path-effect87"
       is_visible="true"
       lpeversion="1"
       pattern="M 33.4505,0 C 21.6873,2.19789 11.4715,9.42525 5.4833,19.78587 -0.4945,30.15135 -1.646,42.61088 2.331,53.89626 14.0929,51.69778 24.3076,44.47081 30.2954,34.11115 36.2745,23.746 37.4268,11.286 33.4505,0 Z"
       copytype="repeated_stretched"
       prop_scale="1"
       scale_y_rel="false"
       spacing="5"
       normal_offset="0"
       tang_offset="0"
       prop_units="false"
       vertical_pattern="false"
       hide_knot="false"
       fuse_tolerance="0" /><inkscape:path-effect
       effect="skeletal"
       id="path-effect84"
       is_visible="true"
       lpeversion="1"
       pattern="M 42.31298,13.6984 35.41561,20.59577 28.90265,14.08281 41.03159,1.95388 54.0575,14.97979 34.51865,34.51865 21.49273,21.49273 1.95388,41.03159 14.97979,54.0575 27.43126,41.60603 20.91831,35.09307 14.23414,41.77724"
       copytype="repeated_stretched"
       prop_scale="1"
       scale_y_rel="false"
       spacing="10"
       normal_offset="0"
       tang_offset="0"
       prop_units="false"
       vertical_pattern="false"
       hide_knot="false"
       fuse_tolerance="0" /><inkscape:path-effect
       effect="skeletal"
       id="path-effect83"
       is_visible="true"
       lpeversion="1"
       pattern="m 11.97392,10.16176 v 9.75436 H 2.76321 V 2.76321 H 21.18463 V 30.39533 H 2.76321 V 58.02745 H 21.18463 V 40.4184 h -9.21071 v 9.45284"
       copytype="repeated_stretched"
       prop_scale="1"
       scale_y_rel="false"
       spacing="20"
       normal_offset="0"
       tang_offset="0"
       prop_units="false"
       vertical_pattern="false"
       hide_knot="false"
       fuse_tolerance="0" /><inkscape:path-effect
       effect="skeletal"
       id="path-effect82"
       is_visible="true"
       lpeversion="1"
       pattern="m 11.97392,10.16176 v 9.75436 H 2.76321 V 2.76321 H 21.18463 V 30.39533 H 2.76321 V 58.02745 H 21.18463 V 40.4184 h -9.21071 v 9.45284"
       copytype="repeated_stretched"
       prop_scale="1"
       scale_y_rel="false"
       spacing="10"
       normal_offset="0"
       tang_offset="0"
       prop_units="false"
       vertical_pattern="true"
       hide_knot="false"
       fuse_tolerance="0" /><inkscape:path-effect
       effect="skeletal"
       id="path-effect81"
       is_visible="true"
       lpeversion="1"
       pattern="m 12.92777,54.66204 v -10.5314 h 9.94444 V 62.64997 H 2.98333 V 32.81665 H 22.87221 V 2.98333 H 2.98333 v 19.01181 h 9.94444 V 11.78927"
       copytype="repeated_stretched"
       prop_scale="1"
       scale_y_rel="true"
       spacing="10"
       normal_offset="0"
       tang_offset="0"
       prop_units="false"
       vertical_pattern="true"
       hide_knot="false"
       fuse_tolerance="0" /><inkscape:path-effect
       effect="skeletal"
       id="path-effect80"
       is_visible="true"
       lpeversion="1"
       pattern="m 610.57621,29.410747 -6.89737,6.89737 -6.51296,-6.51296 12.12894,-12.12893 13.02591,13.02591 -19.53885,19.53886 -13.02592,-13.02592 -19.53885,19.53886 13.02591,13.02591 12.45147,-12.45147 -6.51295,-6.51296 -6.68417,6.68417"
       copytype="repeated_stretched"
       prop_scale="1"
       scale_y_rel="true"
       spacing="10"
       normal_offset="0"
       tang_offset="0"
       prop_units="false"
       vertical_pattern="false"
       hide_knot="false"
       fuse_tolerance="0" /><inkscape:path-effect
       effect="skeletal"
       id="path-effect78"
       is_visible="true"
       lpeversion="1"
       pattern="m 12.92777,54.66204 v -10.5314 h 9.94444 V 62.64997 H 2.98333 V 32.81665 H 22.87221 V 2.98333 H 2.98333 v 19.01181 h 9.94444 V 11.78927"
       copytype="repeated_stretched"
       prop_scale="1"
       scale_y_rel="true"
       spacing="10"
       normal_offset="0"
       tang_offset="0"
       prop_units="false"
       vertical_pattern="true"
       hide_knot="false"
       fuse_tolerance="0" /><inkscape:path-effect
       effect="skeletal"
       id="path-effect71"
       is_visible="true"
       lpeversion="1"
       pattern="M 0,0 H 1"
       copytype="repeated_stretched"
       prop_scale="1"
       scale_y_rel="false"
       spacing="0"
       normal_offset="0"
       tang_offset="0"
       prop_units="false"
       vertical_pattern="false"
       hide_knot="false"
       fuse_tolerance="0" /><inkscape:path-effect
       effect="skeletal"
       id="path-effect70"
       is_visible="true"
       lpeversion="1"
       pattern="M 0,0 H 1"
       copytype="repeated_stretched"
       prop_scale="1"
       scale_y_rel="false"
       spacing="0"
       normal_offset="0"
       tang_offset="0"
       prop_units="false"
       vertical_pattern="false"
       hide_knot="false"
       fuse_tolerance="0" /><inkscape:path-effect
       effect="skeletal"
       id="path-effect69"
       is_visible="true"
       lpeversion="1"
       pattern="M 0.49857,7.62016 V 0.49857 h 10.39692 l -0.0426,7.12159 h 10.16498"
       copytype="repeated_stretched"
       prop_scale="1"
       scale_y_rel="false"
       spacing="0"
       normal_offset="0"
       tang_offset="0"
       prop_units="false"
       vertical_pattern="false"
       hide_knot="false"
       fuse_tolerance="0" /><inkscape:path-effect
       effect="skeletal"
       id="path-effect68"
       is_visible="true"
       lpeversion="1"
       pattern="M 0,0 H 1"
       copytype="single_stretched"
       prop_scale="1"
       scale_y_rel="false"
       spacing="0"
       normal_offset="0"
       tang_offset="0"
       prop_units="false"
       vertical_pattern="false"
       hide_knot="false"
       fuse_tolerance="0" /><inkscape:path-effect
       effect="skeletal"
       id="path-effect67"
       is_visible="true"
       lpeversion="1"
       pattern="M 0,7.62016 H 10.2076 V 0.49857 h 14.24317 l -0.0426,7.12159 H 34.57315 V 0.49857 h 14.24316 v 7.12159"
       copytype="repeated_stretched"
       prop_scale="0.3"
       scale_y_rel="false"
       spacing="1.5"
       normal_offset="0"
       tang_offset="0"
       prop_units="false"
       vertical_pattern="false"
       hide_knot="false"
       fuse_tolerance="0" /><inkscape:path-effect
       effect="skeletal"
       id="path-effect29"
       is_visible="true"
       lpeversion="1"
       pattern="M 0,18.867925 C 0,8.4528302 8.4528302,0 18.867925,0 c 10.415094,0 18.867924,8.4528302 18.867924,18.867925 0,10.415094 -8.45283,18.867924 -18.867924,18.867924 C 8.4528302,37.735849 0,29.283019 0,18.867925 Z"
       copytype="single_stretched"
       prop_scale="0.048572582"
       scale_y_rel="false"
       spacing="0"
       normal_offset="0"
       tang_offset="0"
       prop_units="false"
       vertical_pattern="false"
       hide_knot="false"
       fuse_tolerance="0" /><inkscape:path-effect
       effect="skeletal"
       id="path-effect28"
       is_visible="true"
       lpeversion="1"
       pattern="M 0,18.867925 C 0,8.4528302 8.4528302,0 18.867925,0 c 10.415094,0 18.867924,8.4528302 18.867924,18.867925 0,10.415094 -8.45283,18.867924 -18.867924,18.867924 C 8.4528302,37.735849 0,29.283019 0,18.867925 Z"
       copytype="single_stretched"
       prop_scale="0.048572582"
       scale_y_rel="false"
       spacing="0"
       normal_offset="0"
       tang_offset="0"
       prop_units="false"
       vertical_pattern="false"
       hide_knot="false"
       fuse_tolerance="0" /><inkscape:path-effect
       effect="skeletal"
       id="path-effect27"
       is_visible="true"
       lpeversion="1"
       pattern="M 0,18.867925 C 0,8.4528302 8.4528302,0 18.867925,0 c 10.415094,0 18.867924,8.4528302 18.867924,18.867925 0,10.415094 -8.45283,18.867924 -18.867924,18.867924 C 8.4528302,37.735849 0,29.283019 0,18.867925 Z"
       copytype="single_stretched"
       prop_scale="0.048572582"
       scale_y_rel="false"
       spacing="0"
       normal_offset="0"
       tang_offset="0"
       prop_units="false"
       vertical_pattern="false"
       hide_knot="false"
       fuse_tolerance="0" /><inkscape:path-effect
       effect="skeletal"
       id="path-effect26"
       is_visible="true"
       lpeversion="1"
       pattern="M 0,18.867925 C 0,8.4528302 8.4528302,0 18.867925,0 c 10.415094,0 18.867924,8.4528302 18.867924,18.867925 0,10.415094 -8.45283,18.867924 -18.867924,18.867924 C 8.4528302,37.735849 0,29.283019 0,18.867925 Z"
       copytype="single_stretched"
       prop_scale="0.048572582"
       scale_y_rel="false"
       spacing="0"
       normal_offset="0"
       tang_offset="0"
       prop_units="false"
       vertical_pattern="false"
       hide_knot="false"
       fuse_tolerance="0" /><inkscape:path-effect
       effect="skeletal"
       id="path-effect25"
       is_visible="true"
       lpeversion="1"
       pattern="M 0,18.867925 C 0,8.4528302 8.4528302,0 18.867925,0 c 10.415094,0 18.867924,8.4528302 18.867924,18.867925 0,10.415094 -8.45283,18.867924 -18.867924,18.867924 C 8.4528302,37.735849 0,29.283019 0,18.867925 Z"
       copytype="single_stretched"
       prop_scale="0.048572582"
       scale_y_rel="false"
       spacing="0"
       normal_offset="0"
       tang_offset="0"
       prop_units="false"
       vertical_pattern="false"
       hide_knot="false"
       fuse_tolerance="0" /><inkscape:path-effect
       effect="skeletal"
       id="path-effect24"
       is_visible="true"
       lpeversion="1"
       pattern="M 0,18.867925 C 0,8.4528302 8.4528302,0 18.867925,0 c 10.415094,0 18.867924,8.4528302 18.867924,18.867925 0,10.415094 -8.45283,18.867924 -18.867924,18.867924 C 8.4528302,37.735849 0,29.283019 0,18.867925 Z"
       copytype="single_stretched"
       prop_scale="0.048572582"
       scale_y_rel="false"
       spacing="0"
       normal_offset="0"
       tang_offset="0"
       prop_units="false"
       vertical_pattern="false"
       hide_knot="false"
       fuse_tolerance="0" /><inkscape:path-effect
       effect="skeletal"
       id="path-effect23"
       is_visible="true"
       lpeversion="1"
       pattern="M 0,18.867925 C 0,8.4528302 8.4528302,0 18.867925,0 c 10.415094,0 18.867924,8.4528302 18.867924,18.867925 0,10.415094 -8.45283,18.867924 -18.867924,18.867924 C 8.4528302,37.735849 0,29.283019 0,18.867925 Z"
       copytype="single_stretched"
       prop_scale="0.048572582"
       scale_y_rel="false"
       spacing="0"
       normal_offset="0"
       tang_offset="0"
       prop_units="false"
       vertical_pattern="false"
       hide_knot="false"
       fuse_tolerance="0" /><inkscape:path-effect
       effect="skeletal"
       id="path-effect22"
       is_visible="true"
       lpeversion="1"
       pattern="M 0,18.867925 C 0,8.4528302 8.4528302,0 18.867925,0 c 10.415094,0 18.867924,8.4528302 18.867924,18.867925 0,10.415094 -8.45283,18.867924 -18.867924,18.867924 C 8.4528302,37.735849 0,29.283019 0,18.867925 Z"
       copytype="single_stretched"
       prop_scale="0.048572582"
       scale_y_rel="false"
       spacing="0"
       normal_offset="0"
       tang_offset="0"
       prop_units="false"
       vertical_pattern="false"
       hide_knot="false"
       fuse_tolerance="0" /><inkscape:path-effect
       effect="skeletal"
       id="path-effect21"
       is_visible="true"
       lpeversion="1"
       pattern="M 0,18.867925 C 0,8.4528302 8.4528302,0 18.867925,0 c 10.415094,0 18.867924,8.4528302 18.867924,18.867925 0,10.415094 -8.45283,18.867924 -18.867924,18.867924 C 8.4528302,37.735849 0,29.283019 0,18.867925 Z"
       copytype="single_stretched"
       prop_scale="0.065577362"
       scale_y_rel="false"
       spacing="0"
       normal_offset="0"
       tang_offset="0"
       prop_units="false"
       vertical_pattern="false"
       hide_knot="false"
       fuse_tolerance="0" /><inkscape:path-effect
       effect="skeletal"
       id="path-effect20"
       is_visible="true"
       lpeversion="1"
       pattern="M 0,18.867925 C 0,8.4528302 8.4528302,0 18.867925,0 c 10.415094,0 18.867924,8.4528302 18.867924,18.867925 0,10.415094 -8.45283,18.867924 -18.867924,18.867924 C 8.4528302,37.735849 0,29.283019 0,18.867925 Z"
       copytype="single_stretched"
       prop_scale="0.065577362"
       scale_y_rel="false"
       spacing="0"
       normal_offset="0"
       tang_offset="0"
       prop_units="false"
       vertical_pattern="false"
       hide_knot="false"
       fuse_tolerance="0" /><inkscape:path-effect
       effect="skeletal"
       id="path-effect19"
       is_visible="true"
       lpeversion="1"
       pattern="M 0,18.867925 C 0,8.4528302 8.4528302,0 18.867925,0 c 10.415094,0 18.867924,8.4528302 18.867924,18.867925 0,10.415094 -8.45283,18.867924 -18.867924,18.867924 C 8.4528302,37.735849 0,29.283019 0,18.867925 Z"
       copytype="single_stretched"
       prop_scale="0.05"
       scale_y_rel="false"
       spacing="0"
       normal_offset="0"
       tang_offset="0"
       prop_units="false"
       vertical_pattern="false"
       hide_knot="false"
       fuse_tolerance="0" /><inkscape:path-effect
       effect="skeletal"
       id="path-effect18"
       is_visible="true"
       lpeversion="1"
       pattern="M 0,18.867925 C 0,8.4528302 8.4528302,0 18.867925,0 c 10.415094,0 18.867924,8.4528302 18.867924,18.867925 0,10.415094 -8.45283,18.867924 -18.867924,18.867924 C 8.4528302,37.735849 0,29.283019 0,18.867925 Z"
       copytype="single_stretched"
       prop_scale="0.05"
       scale_y_rel="false"
       spacing="0"
       normal_offset="0"
       tang_offset="0"
       prop_units="false"
       vertical_pattern="false"
       hide_knot="false"
       fuse_tolerance="0" /><inkscape:path-effect
       effect="skeletal"
       id="path-effect17"
       is_visible="true"
       lpeversion="1"
       pattern="M 0,18.867925 C 0,8.4528302 8.4528302,0 18.867925,0 c 10.415094,0 18.867924,8.4528302 18.867924,18.867925 0,10.415094 -8.45283,18.867924 -18.867924,18.867924 C 8.4528302,37.735849 0,29.283019 0,18.867925 Z"
       copytype="single_stretched"
       prop_scale="0.05"
       scale_y_rel="false"
       spacing="0"
       normal_offset="0"
       tang_offset="0"
       prop_units="false"
       vertical_pattern="false"
       hide_knot="false"
       fuse_tolerance="0" /><inkscape:path-effect
       effect="skeletal"
       id="path-effect16"
       is_visible="true"
       lpeversion="1"
       pattern="M 0,18.867925 C 0,8.4528302 8.4528302,0 18.867925,0 c 10.415094,0 18.867924,8.4528302 18.867924,18.867925 0,10.415094 -8.45283,18.867924 -18.867924,18.867924 C 8.4528302,37.735849 0,29.283019 0,18.867925 Z"
       copytype="single_stretched"
       prop_scale="0.1"
       scale_y_rel="false"
       spacing="0"
       normal_offset="0"
       tang_offset="0"
       prop_units="false"
       vertical_pattern="false"
       hide_knot="false"
       fuse_tolerance="0" /><inkscape:path-effect
       effect="skeletal"
       id="path-effect15"
       is_visible="true"
       lpeversion="1"
       pattern="M 0,18.867925 C 0,8.4528302 8.4528302,0 18.867925,0 c 10.415094,0 18.867924,8.4528302 18.867924,18.867925 0,10.415094 -8.45283,18.867924 -18.867924,18.867924 C 8.4528302,37.735849 0,29.283019 0,18.867925 Z"
       copytype="single_stretched"
       prop_scale="1"
       scale_y_rel="false"
       spacing="0"
       normal_offset="0"
       tang_offset="0"
       prop_units="false"
       vertical_pattern="false"
       hide_knot="false"
       fuse_tolerance="0" /><inkscape:path-effect
       effect="skeletal"
       id="path-effect14"
       is_visible="true"
       lpeversion="1"
       pattern="M 0,18.867925 C 0,8.4528302 8.4528302,0 18.867925,0 c 10.415094,0 18.867924,8.4528302 18.867924,18.867925 0,10.415094 -8.45283,18.867924 -18.867924,18.867924 C 8.4528302,37.735849 0,29.283019 0,18.867925 Z"
       copytype="single_stretched"
       prop_scale="1"
       scale_y_rel="false"
       spacing="0"
       normal_offset="0"
       tang_offset="0"
       prop_units="false"
       vertical_pattern="false"
       hide_knot="false"
       fuse_tolerance="0" /><inkscape:path-effect
       effect="skeletal"
       id="path-effect16-4"
       is_visible="true"
       lpeversion="1"
       pattern="M 0,18.867925 C 0,8.4528302 8.4528302,0 18.867925,0 c 10.415094,0 18.867924,8.4528302 18.867924,18.867925 0,10.415094 -8.45283,18.867924 -18.867924,18.867924 C 8.4528302,37.735849 0,29.283019 0,18.867925 Z"
       copytype="single_stretched"
       prop_scale="0.1"
       scale_y_rel="false"
       spacing="0"
       normal_offset="0"
       tang_offset="0"
       prop_units="false"
       vertical_pattern="false"
       hide_knot="false"
       fuse_tolerance="0" /><inkscape:path-effect
       effect="skeletal"
       id="path-effect16-5"
       is_visible="true"
       lpeversion="1"
       pattern="M 0,18.867925 C 0,8.4528302 8.4528302,0 18.867925,0 c 10.415094,0 18.867924,8.4528302 18.867924,18.867925 0,10.415094 -8.45283,18.867924 -18.867924,18.867924 C 8.4528302,37.735849 0,29.283019 0,18.867925 Z"
       copytype="single_stretched"
       prop_scale="0.048572582"
       scale_y_rel="false"
       spacing="0"
       normal_offset="0"
       tang_offset="0"
       prop_units="false"
       vertical_pattern="false"
       hide_knot="false"
       fuse_tolerance="0" /><inkscape:path-effect
       effect="skeletal"
       id="path-effect17-5"
       is_visible="true"
       lpeversion="1"
       pattern="M 0,18.867925 C 0,8.4528302 8.4528302,0 18.867925,0 c 10.415094,0 18.867924,8.4528302 18.867924,18.867925 0,10.415094 -8.45283,18.867924 -18.867924,18.867924 C 8.4528302,37.735849 0,29.283019 0,18.867925 Z"
       copytype="single_stretched"
       prop_scale="0.05"
       scale_y_rel="false"
       spacing="0"
       normal_offset="0"
       tang_offset="0"
       prop_units="false"
       vertical_pattern="false"
       hide_knot="false"
       fuse_tolerance="0" /><inkscape:path-effect
       effect="skeletal"
       id="path-effect18-1"
       is_visible="true"
       lpeversion="1"
       pattern="M 0,18.867925 C 0,8.4528302 8.4528302,0 18.867925,0 c 10.415094,0 18.867924,8.4528302 18.867924,18.867925 0,10.415094 -8.45283,18.867924 -18.867924,18.867924 C 8.4528302,37.735849 0,29.283019 0,18.867925 Z"
       copytype="single_stretched"
       prop_scale="0.05"
       scale_y_rel="false"
       spacing="0"
       normal_offset="0"
       tang_offset="0"
       prop_units="false"
       vertical_pattern="false"
       hide_knot="false"
       fuse_tolerance="0" /><inkscape:path-effect
       effect="skeletal"
       id="path-effect19-7"
       is_visible="true"
       lpeversion="1"
       pattern="M 0,18.867925 C 0,8.4528302 8.4528302,0 18.867925,0 c 10.415094,0 18.867924,8.4528302 18.867924,18.867925 0,10.415094 -8.45283,18.867924 -18.867924,18.867924 C 8.4528302,37.735849 0,29.283019 0,18.867925 Z"
       copytype="single_stretched"
       prop_scale="0.05"
       scale_y_rel="false"
       spacing="0"
       normal_offset="0"
       tang_offset="0"
       prop_units="false"
       vertical_pattern="false"
       hide_knot="false"
       fuse_tolerance="0" /><inkscape:path-effect
       effect="skeletal"
       id="path-effect20-1"
       is_visible="true"
       lpeversion="1"
       pattern="M 0,18.867925 C 0,8.4528302 8.4528302,0 18.867925,0 c 10.415094,0 18.867924,8.4528302 18.867924,18.867925 0,10.415094 -8.45283,18.867924 -18.867924,18.867924 C 8.4528302,37.735849 0,29.283019 0,18.867925 Z"
       copytype="single_stretched"
       prop_scale="0.065577362"
       scale_y_rel="false"
       spacing="0"
       normal_offset="0"
       tang_offset="0"
       prop_units="false"
       vertical_pattern="false"
       hide_knot="false"
       fuse_tolerance="0" /></defs><g
     inkscape:label="Referencias"
     inkscape:groupmode="layer"
     id="layer1"
     style="display:inline;opacity:0.65"><image
       width="459.33331"
       height="689"
       preserveAspectRatio="none"
       style="display:none;image-rendering:optimizeQuality"
       xlink:href="Reference%20Images/Ref%20Jaguar.jpg"
       id="image1"
       x="26.333344"
       y="-25" /><image
       width="443.03061"
       height="723.61664"
       preserveAspectRatio="none"
       style="display:none;image-rendering:optimizeQuality"
       xlink:href="Reference%20Images/WhatsApp%20Image%202025-03-19%20at%2012.26.41.jpeg"
       id="image1-5"
       x="35.656487"
       y="-41.663639" /></g><g
     inkscape:groupmode="layer"
     id="layer2"
     inkscape:label="Line Art"><circle
       style="fill:#5d737e;fill-opacity:1;stroke:none;stroke-width:7.08388;stroke-linecap:round;stroke-linejoin:bevel;stroke-dasharray:none;paint-order:stroke fill markers"
       id="path277"
       cx="256"
       cy="256"
       r="256" /><path
       id="path58"
       style="fill:#f96900;fill-opacity:1;stroke:none;stroke-width:4.04117;stroke-dasharray:none;paint-order:stroke fill markers"
       d="m 219.56254,119.47398 36.43745,24.955 36.43747,-24.955 h -36.43747 z m 14.40926,152.87743 -9.2631,-19.33449 -14.92388,19.78413 33.45008,29.35633 -54.41529,10.66158 -8.49118,-36.42079 41.29256,-44.96395 -13.38003,-63.84882 -7.71925,20.23379 -42.71318,2.24819 53.00552,-60.25168 45.18594,29.22655 45.18596,-29.22655 53.00552,60.25168 -42.71319,-2.24819 -7.71925,-20.23379 -13.38003,63.84882 41.29256,46.31287 -9.77771,35.07187 -53.12876,-10.66158 33.45008,-29.35633 -14.92387,-19.78414 -9.26311,19.3345 L 256,279.54564 Z m -25.25057,-56.20493 h -23.12341 l -11.83617,-16.17352 -23.15776,25.1663 22.64314,41.36685 z m -12.31646,140.98731 v -26.77888 l 59.59522,-13.03955 59.33792,13.26436 0.36389,24.87124 L 256,392.18856 Z m 106.874,-140.98731 h 23.1234 l 11.83618,-16.17352 23.15776,25.1663 -22.64314,41.36685 z" /><path
       id="path80"
       d="m 437.42494,374.97998 c 4.8909,-7.13724 9.38339,-14.53369 13.43675,-22.14856 l -21.57145,-11.4824 c -6.40229,11.93237 -14.04355,23.30818 -22.70217,33.90586 l 38.07611,31.00088 c 17.05247,-21.004 30.84727,-44.64478 40.45825,-69.99611 l -45.53588,-17.35282 c 7.74185,-20.18454 11.91729,-41.46217 11.60017,-62.90677 h 49.29091 c -0.20214,17.74555 -2.4794,35.17255 -6.59224,52.04132 l -23.66308,-5.74327 c 1.96476,-8.09505 3.43669,-16.31486 4.37874,-24.62231 M 299.85778,470.79882 c 8.37871,-1.925 16.62856,-4.3787 24.70875,-7.32041 l -8.33321,-22.88962 c -12.58841,4.60966 -25.58234,7.82936 -38.76021,9.43748 l 6.22932,48.44502 c 27.2164,-3.63874 53.33797,-12.07704 77.4385,-24.38873 l -22.34031,-43.44822 c 19.34764,-10.02861 37.29171,-23.31317 52.90605,-38.92749 l 34.7466,34.74663 c -12.19237,12.19239 -25.58167,23.1879 -39.92816,32.74679 l -13.63433,-20.36001 c 6.96509,-4.66426 13.69047,-9.70636 20.13906,-15.08926 m -256.00988,13.67389 c 7.13722,4.8909 14.53365,9.38342 22.14856,13.43677 l 11.48239,-21.57143 c -11.93238,-6.40231 -23.30816,-14.04356 -33.90583,-22.7022 l -31.00092,38.0761 c 21.004,17.05248 44.64474,30.8473 69.9961,40.45829 l 17.35282,-45.53587 c 20.18453,7.74187 41.46219,11.91733 62.90678,11.60023 l 5e-5,49.29078 c -17.74566,-0.20191 -35.17266,-2.47931 -52.04142,-6.59217 l 5.74331,-23.66306 c 8.09506,1.96476 16.31483,3.43671 24.62229,4.37874 M 41.201198,299.85768 c 1.924998,8.37869 4.378704,16.62854 7.320402,24.70876 l 22.889631,-8.33321 c -4.609667,-12.58841 -7.829338,-25.58234 -9.43744,-38.76021 l -48.44504,6.22929 c 3.638718,27.2164 12.076997,53.33798 24.38869,77.4385 l 43.448205,-22.34028 c 10.028619,19.34764 23.313164,37.29177 38.927484,52.9061 L 85.546457,426.4532 C 73.354079,414.26081 62.358574,400.87151 52.799679,386.52502 l 20.360043,-13.63433 c 4.66423,6.96509 9.706353,13.69049 15.089231,20.13909 M 74.575276,137.01986 c -4.890909,7.13723 -9.383426,14.53366 -13.436793,22.14857 l 21.57143,11.48241 C 89.11223,158.71847 96.753484,147.34268 105.41213,136.74501 L 67.336059,105.74406 C 50.283566,126.74807 36.48872,150.38879 26.87771,175.74012 l 45.53586,17.3529 c -7.741878,20.1845 -11.917365,41.46215 -11.600291,62.90675 l -49.29091,-9e-5 c 0.202134,-17.74556 2.479463,-35.17257 6.592345,-52.0413 l 23.663062,5.74331 c -1.964784,8.09505 -3.436717,16.31483 -4.37877,24.62229 M 212.14254,41.201223 c -8.37869,1.924977 -16.62851,4.378682 -24.70874,7.320381 l 8.33319,22.88963 c 12.58841,-4.609644 25.58234,-7.829293 38.7602,-9.437416 l -6.22922,-48.44502 c -27.21642,3.638696 -53.338,12.076953 -77.43855,24.388602 l 22.34026,43.448226 C 153.85202,91.394225 135.90791,104.67878 120.29356,120.29306 L 85.546987,85.546373 C 97.739411,73.354016 111.12872,62.358535 125.47522,52.799639 l 13.63431,20.360041 c -6.96511,4.664254 -13.69049,9.706355 -20.13909,15.089233 M 374.98033,74.575434 c -7.13722,-4.890909 -14.53364,-9.383426 -22.14851,-13.436817 l -11.48247,21.571432 c 11.93237,6.40234 23.30818,14.043593 33.90584,22.702251 L 406.25616,67.336239 C 385.25218,50.283724 361.61145,36.488878 336.26012,26.877846 L 318.9072,72.413685 C 298.72269,64.671806 277.44505,60.496297 256.00045,60.813348 l 1.5e-4,-49.29091 c 17.74555,0.202133 35.17254,2.479485 52.04128,6.592389 l -5.74333,23.663041 C 294.2035,39.813105 285.98372,38.341151 277.67627,37.399076 M 470.79888,212.14279 c -1.92497,-8.3787 -4.37868,-16.62854 -7.32035,-24.70877 l -22.88966,8.33316 c 4.60964,12.58844 7.8293,25.58235 9.4374,38.76023 l 48.44504,-6.22918 C 494.83264,201.0818 486.39439,174.96022 474.08276,150.85965 L 430.6345,173.19987 C 420.60594,153.8522 407.32141,135.90809 391.70712,120.29372 l 34.74671,-34.74653 c 12.19235,12.192423 23.18783,25.58174 32.74672,39.92826 l -20.36005,13.63428 c -4.66426,-6.96511 -9.70637,-13.69049 -15.08921,-20.13911"
       style="fill:none;stroke:#dbe9ee;stroke-width:11.0456;stroke-linecap:round;stroke-linejoin:bevel;stroke-dasharray:none;stroke-opacity:1;paint-order:stroke fill markers" /><path
       id="path81"
       d="m 422.83223,264.47333 c -0.21697,3.71073 -0.57485,7.40285 -1.06806,11.07078 l 10.36498,1.39372 c 0.94747,-6.89828 1.46022,-13.8877 1.50786,-20.93784 h -21.1134 c 0.0768,9.80805 -0.96908,19.54292 -3.01052,29.07767 l 20.39969,4.39439 c -2.36377,10.91511 -5.80756,21.54569 -10.20446,31.76477 l -19.17944,-8.28226 c 2.48898,-5.74022 4.6252,-11.61325 6.37579,-17.58627 l 10.00781,2.93159 c -1.00534,3.43206 -2.12677,6.83036 -3.35918,10.18983 m -12.32802,26.29415 c -1.85262,3.21166 -3.80877,6.36733 -5.86289,9.46144 l 8.74349,5.80465 c 3.8161,-5.76551 7.31299,-11.73764 10.4603,-17.88604 l -18.61303,-9.56444 c -4.51788,8.7542 -9.85845,17.13539 -15.89485,25.01662 l 16.70299,12.7625 c -6.7575,8.86284 -14.29521,17.1413 -22.48619,24.70846 l -14.28641,-15.45401 c 4.65271,-4.30437 9.07441,-8.86332 13.23223,-13.64401 l 7.9425,6.89868 c -2.36581,2.72378 -4.81262,5.37871 -7.33531,7.95973 m -22.02315,19.21145 c -2.98829,2.2126 -6.04275,4.33187 -9.15782,6.35222 l 5.70917,8.80271 c 5.80552,-3.7535 11.4074,-7.82919 16.77523,-12.19666 l -13.28705,-16.30325 c -7.69615,6.28404 -15.91523,11.89525 -24.53027,16.7067 l 10.18064,18.30494 c -9.73492,5.39428 -19.95026,9.90434 -30.51903,13.40327 l -6.56775,-19.80013 c 5.91388,-1.96596 11.71849,-4.30824 17.38102,-6.99403 l 4.46433,9.45292 c -3.24176,1.53099 -6.52942,2.95806 -9.85788,4.27611 m -27.78881,8.1993 c -3.62401,0.71359 -7.27681,1.29647 -10.95289,1.74309 l 1.26204,10.38799 c 6.9158,-0.86235 13.74345,-2.1624 20.45262,-3.86978 l -5.13542,-20.2164 c -9.45816,2.39757 -19.13941,3.82251 -28.91683,4.14787 l 0.83268,21.02178 c -2.04398,0.0922 -4.09388,0.14557 -6.14894,0.15947 -9.3022,-0.0628 -18.49869,-0.93542 -27.51969,-2.54794 l 3.63678,-20.56634 c 6.11969,1.06867 12.3113,1.7237 18.54204,1.93221 l -0.41826,10.51066 c -3.6045,-0.14344 -7.19279,-0.42048 -10.7598,-0.82607 m -28.36195,-6.00692 c -3.5237,-1.09729 -7.0101,-2.3168 -10.45361,-3.65297 l -3.77579,9.73084 c 6.4418,2.49168 13.03246,4.6064 19.74163,6.31379 l 5.13544,-20.21642 c -9.45817,-2.39761 -18.69322,-5.76785 -27.57825,-9.9838 l -8.93167,18.90454 c -10.06601,-4.73768 -19.69755,-10.40547 -28.76771,-16.87645 L 168.71051,383.266 c 5.13511,3.68368 10.46392,7.07546 15.9536,10.14249 l -5.09175,9.15174 c -3.13848,-1.74615 -6.22565,-3.5908 -9.25647,-5.52892 m -23.24397,-17.66679 c -2.77462,-2.48294 -5.47459,-5.05075 -8.09432,-7.69785 l -7.48028,7.40294 c 4.86939,4.9207 10.00319,9.57999 15.37102,13.94748 l 13.28706,-16.30327 c -7.69614,-6.28403 -14.86938,-13.2409 -21.39276,-20.74366 l -15.88694,13.79502 c -7.30557,-8.42324 -13.87687,-17.47682 -19.58695,-27.03373 l 17.98029,-10.78029 c 3.24796,5.39612 6.81141,10.6221 10.65746,15.64509 l -8.35241,6.38001 c -2.18793,-2.86435 -4.2895,-5.79214 -6.29961,-8.77828 m -14.19654,-25.39717 c -1.52559,-3.36864 -2.93916,-6.78479 -4.235128,-10.24284 l -9.771962,3.66219 c 2.417825,6.47057 5.215579,12.79524 8.362895,18.94364 l 18.613055,-9.56443 c -4.51786,-8.75422 -8.21296,-17.88141 -10.9584,-27.25468 l -20.016567,5.85988 C 81.942983,290.51203 79.84823,279.489 78.914522,268.26241 l 20.913586,-1.64878 c 0.458272,6.20601 1.353772,12.36364 2.653652,18.44004 l -10.200249,2.19545 c -0.752904,-3.49805 -1.384333,-7.02445 -1.889216,-10.57411 m -1.224528,-29.14847 c 0.216976,-3.71074 0.574867,-7.40286 1.068082,-11.07079 l -10.364983,-1.39374 c -0.947484,6.89831 -1.460229,13.88771 -1.507875,20.93785 l 21.113471,4e-5 c -0.07679,-9.80808 0.969018,-19.54295 3.010468,-29.07769 L 82.087247,222.5278 c 2.363762,-10.9151 5.807568,-21.54567 10.204476,-31.76477 l 19.179457,8.28228 c -2.489,5.74022 -4.62523,11.61326 -6.37583,17.58628 l -10.007796,-2.93161 c 1.005352,-3.43205 2.126786,-6.83035 3.359189,-10.18982 m 12.328047,-26.29414 c 1.8526,-3.21165 3.80876,-6.36733 5.8629,-9.46143 l -8.74349,-5.80466 c -3.8161,5.76549 -7.31299,11.73762 -10.460329,17.88602 l 18.613049,9.56447 c 4.51785,-8.75421 9.85845,-17.13539 15.89484,-25.01662 L 115.23878,151.6213 C 121.99627,142.75847 129.534,134.48 137.725,126.91285 l 14.2864,15.45403 c -4.65271,4.30434 -9.07442,8.8633 -13.23226,13.64397 l -7.94247,-6.89867 c 2.36583,-2.72378 4.81261,-5.37872 7.3353,-7.95971 m 22.02315,-19.21145 c 2.9883,-2.2126 6.04276,-4.33188 9.15785,-6.3522 l -5.70917,-8.80274 c -5.80553,3.7535 -11.4074,7.82919 -16.77524,12.19665 L 160.1556,135.286 c 7.69617,-6.28403 15.91522,-11.89524 24.53029,-16.70667 l -10.18065,-18.30496 c 9.73494,-5.394254 19.95027,-9.90432 30.51905,-13.403245 l 6.56774,19.800135 c -5.91388,1.96595 -11.7185,4.30823 -17.38102,6.99402 l -4.46433,-9.45293 c 3.24177,-1.53099 6.52941,-2.95805 9.85789,-4.276104 m 27.78882,-8.199262 c 3.62399,-0.713593 7.27683,-1.296481 10.95288,-1.743083 l -1.26203,-10.387985 c -6.9158,0.862339 -13.74346,2.162375 -20.45263,3.869744 l 5.13541,20.21643 c 9.45817,-2.39759 19.13942,-3.822515 28.91683,-4.147856 l -0.83266,-21.021793 c 2.04394,-0.09215 4.09379,-0.145569 6.14881,-0.15945 9.30225,0.06281 18.49878,0.935418 27.51983,2.547946 l -3.6368,20.566353 c -6.11967,-1.06869 -12.31131,-1.723715 -18.54204,-1.932231 l 0.41827,-10.510655 c 3.60449,0.14344 7.1928,0.420482 10.7598,0.826063 m 28.36194,6.006951 c 3.52369,1.097284 7.01008,2.316804 10.4536,3.652977 l 3.77581,-9.730838 c -6.44181,-2.491693 -13.03246,-4.606411 -19.74162,-6.313793 l -5.13546,20.216416 c 9.45815,2.39759 18.69322,5.76785 27.57823,9.98381 l 8.93168,-18.904527 c 10.06601,4.737676 19.69756,10.405467 28.76771,16.876467 l -12.22136,17.08614 c -5.13512,-3.68369 -10.46392,-7.07547 -15.95357,-10.14251 l 5.09174,-9.15174 c 3.13847,1.74615 6.22566,3.59082 9.25645,5.52893 m 23.24396,17.66679 c 2.77463,2.48295 5.47459,5.05077 8.09431,7.69787 l 7.48029,-7.40292 c -4.86939,-4.92073 -10.00318,-9.58 -15.37101,-13.94749 l -13.28709,16.30323 c 7.69616,6.28405 14.86939,13.24094 21.39275,20.74369 l 15.88694,-13.79501 c 7.30558,8.42326 13.87688,17.47682 19.58695,27.03375 l -17.98029,10.78027 c -3.24797,-5.39612 -6.81139,-10.6221 -10.65746,-15.6451 l 8.35242,-6.38 c 2.18795,2.86434 4.2895,5.79214 6.2996,8.77828 m 14.19652,25.39718 c 1.52559,3.36864 2.93916,6.78478 4.23512,10.24285 l 9.77197,-3.6622 c -2.41781,-6.47056 -5.21557,-12.79522 -8.36288,-18.94362 l -18.61305,9.56441 c 4.51783,8.75421 8.21294,17.88142 10.95836,27.25468 l 20.01659,-5.85986 c 3.12883,10.69255 5.22357,21.71558 6.15728,32.94216 l -20.9136,1.64876 c -0.45826,-6.206 -1.35375,-12.36362 -2.65364,-18.44002 l 10.20026,-2.19545 c 0.75289,3.49804 1.38434,7.02445 1.88921,10.57412"
       style="fill:none;stroke:#ffd166;stroke-width:4.72609;stroke-linecap:round;stroke-linejoin:bevel;stroke-dasharray:none;stroke-opacity:1;paint-order:stroke fill markers" /></g></svg>
