<?xml version="1.0" encoding="UTF-8" standalone="no"?>
<!-- Created with Inkscape (http://www.inkscape.org/) -->

<svg
   width="89.418686mm"
   height="16.933332mm"
   viewBox="0 0 89.418686 16.933332"
   version="1.1"
   id="svg1"
   inkscape:version="1.4 (86a8ad7, 2024-10-11)"
   sodipodi:docname="Documento de Logos Sikil.svg"
   inkscape:export-batch-path="..\Logo Files\Full Lockup"
   inkscape:export-batch-name=""
   xmlns:inkscape="http://www.inkscape.org/namespaces/inkscape"
   xmlns:sodipodi="http://sodipodi.sourceforge.net/DTD/sodipodi-0.dtd"
   xmlns:xlink="http://www.w3.org/1999/xlink"
   xmlns="http://www.w3.org/2000/svg"
   xmlns:svg="http://www.w3.org/2000/svg">
  <sodipodi:namedview
     id="namedview1"
     pagecolor="#b9b9b9"
     bordercolor="#000000"
     borderopacity="0.25"
     inkscape:showpageshadow="2"
     inkscape:pageopacity="0.0"
     inkscape:pagecheckerboard="0"
     inkscape:deskcolor="#d1c2c2"
     inkscape:document-units="mm"
     inkscape:zoom="0.69670057"
     inkscape:cx="577.00542"
     inkscape:cy="195.92348"
     inkscape:window-width="1147"
     inkscape:window-height="755"
     inkscape:window-x="182"
     inkscape:window-y="0"
     inkscape:window-maximized="0"
     inkscape:current-layer="layer1"
     showguides="true" />
  <defs
     id="defs1">
    <color-profile
       name="sRGB-IEC61966-2.1"
       xlink:href="file:///C:/WINDOWS/system32/spool/drivers/color/sRGB%20Color%20Space%20Profile.icm"
       id="color-profile3" />
    <color-profile
       name="Agfa-:-Swop-Standard"
       xlink:href="file:///C:/WINDOWS/system32/spool/drivers/color/RSWOP.icm"
       id="color-profile4" />
  </defs>
  <g
     inkscape:label="Capa 1"
     inkscape:groupmode="layer"
     id="layer1"
     transform="translate(-179.03281,-42.232048)">
    <g
       id="Lockup_Color_Inverted"
       transform="matrix(0.98817851,0,0,0.98817851,43.949326,26.744891)">
      <g
         id="g65"
         transform="matrix(0.52916667,0,0,0.52916667,118.69258,-17.411155)">
        <g
           id="g64">
          <rect
             style="fill:#3d0c11;fill-opacity:1;stroke:none;stroke-width:0.383;stroke-linecap:round;stroke-linejoin:bevel;stroke-dasharray:none;paint-order:stroke fill markers"
             id="rect63"
             width="32"
             height="32"
             x="34.02877"
             y="62.902969"
             ry="5.6727271" />
          <path
             id="path64"
             style="fill:#f96900;fill-opacity:1;stroke:none;stroke-width:0.391231;stroke-dasharray:none;paint-order:stroke fill markers"
             d="m 46.225859,64.902969 3.802909,2.562166 3.802913,-2.562166 h -3.802913 z m 1.503867,15.696148 -0.966772,-1.985102 -1.557578,2.031265 3.491123,3.014058 -5.679225,1.094641 -0.886207,-3.739378 4.309628,-4.616512 -1.396449,-6.555451 -0.805645,2.077433 -4.457895,0.230824 5.532086,-6.186127 4.715976,3.000733 4.71598,-3.000733 5.532086,6.186127 -4.457899,-0.230824 -0.805641,-2.077433 -1.396449,6.555451 4.309628,4.755008 -1.020482,3.600882 -5.54495,-1.094641 3.491122,-3.014058 -1.557578,-2.031265 -0.966772,1.985102 -2.299041,0.738641 z M 45.09437,74.828473 h -2.413347 l -1.235319,-1.660559 -2.416934,2.583861 2.363224,4.247197 z m -1.285445,14.475372 v -2.749424 l 6.219843,-1.338791 6.192993,1.361871 0.03798,2.553564 -6.230968,3.771904 z M 54.963169,74.828473 h 2.413348 l 1.235319,-1.660559 2.416934,2.583861 -2.363225,4.247197 z" />
        </g>
      </g>
      <g
         id="g71"
         transform="translate(39.141973,-25.209314)"
         style="fill:#3d0c11;fill-opacity:0.980392">
        <path
           id="path67"
           style="font-size:13.5414px;font-family:'Lucida Sans Unicode';-inkscape-font-specification:'Lucida Sans Unicode, Normal';fill:#3d0c11;fill-opacity:0.980392;stroke-width:2.10742;stroke-linecap:round;stroke-linejoin:bevel;paint-order:stroke fill markers"
           d="m 134.8543,41.116353 v 2.230355 h 3.88504 v 8.757605 h -3.88504 v 2.230355 h 3.88504 2.34714 3.90829 v -2.230355 h -3.90829 v -8.757605 h 3.90829 v -2.230355 h -3.90829 -2.34714 z m 0,14.285433 v 2.230355 h 10.14047 v -2.230355 z" />
        <path
           id="path68"
           style="font-size:24.0371px;font-family:'Cascadia Mono';-inkscape-font-specification:'Cascadia Mono, Normal';fill:#3d0c11;fill-opacity:0.980392;stroke-width:0.679858;paint-order:stroke fill markers"
           d="m 177.01297,41.116353 v 10.98796 2.230355 1.218013 2.230355 h 2.34766 8.68526 v -2.230355 h -8.68526 v -1.218013 h 8.68526 v -2.230355 h -8.68526 v -10.98796 z" />
        <path
           id="path69"
           style="font-size:24.0371px;font-family:'Cascadia Mono';-inkscape-font-specification:'Cascadia Mono, Normal';fill:#3d0c11;fill-opacity:0.980392;stroke-width:0.679858;paint-order:stroke fill markers"
           d="m 163.02261,41.116353 v 2.230355 h 3.88503 v 8.757605 h -3.88503 v 2.230355 h 3.88503 2.34766 3.90829 v -2.230355 h -3.90829 v -8.757605 h 3.90829 v -2.230355 h -3.90829 -2.34766 z m -0.0114,14.436328 v 2.230355 h 10.14046 v -2.230355 z" />
        <path
           id="path70"
           style="font-size:24.0371px;font-family:'Cascadia Mono';-inkscape-font-specification:'Cascadia Mono, Normal';fill:#3d0c11;fill-opacity:0.980392;stroke-width:0.679858;paint-order:stroke fill markers"
           d="m 125.79336,40.881742 c -1.60404,0 -2.84435,0.399237 -3.72071,1.197343 -0.87635,0.798107 -1.31413,1.924784 -1.31413,3.380156 0,1.079791 0.30081,1.983259 0.9033,2.710945 0.61032,0.727686 1.48285,1.350131 2.61742,1.866553 l 2.88767,1.314132 c 1.0172,0.46165 1.52549,1.189608 1.52549,2.183329 0,0.782458 -0.26581,1.365327 -0.79788,1.748731 -0.53207,0.383404 -1.34576,0.575158 -2.4412,0.575158 -0.75898,0 -1.54172,-0.09385 -2.34766,-0.281636 -0.7981,-0.195615 -1.62752,-0.477155 -2.48822,-0.84491 l -0.30489,2.370398 c 0.70421,0.305159 1.46665,0.532429 2.28824,0.681095 0.8294,0.156492 1.71766,0.234611 2.66443,0.234611 1.99527,0 3.48212,-0.375387 4.4602,-1.126546 0.9859,-0.758984 1.47897,-1.893783 1.47897,-3.403927 0,-1.142388 -0.32111,-2.077311 -0.96273,-2.804996 -0.64161,-0.727686 -1.5806,-1.381068 -2.81688,-1.960087 l -2.44119,-1.150318 c -0.56338,-0.266036 -0.99001,-0.567364 -1.27951,-0.903821 -0.28951,-0.344281 -0.43408,-0.786121 -0.43408,-1.326017 0,-0.758984 0.21915,-1.330186 0.65732,-1.71359 0.446,-0.391229 1.07199,-0.587045 1.87792,-0.587045 0.64944,0 1.27137,0.129363 1.86604,0.387574 0.60249,0.250386 1.24827,0.657228 1.93683,1.220597 l 1.64279,-1.666565 c -0.79811,-0.743335 -1.62752,-1.279538 -2.48822,-1.60817 -0.8607,-0.328632 -1.85041,-0.492994 -2.96932,-0.492994 z m -0.0119,3.402893 a 1,1 0 0 0 -0.99994,0.999939 1,1 0 0 0 0.99994,0.999939 1,1 0 0 0 1.00046,-0.999939 1,1 0 0 0 -1.00046,-0.999939 z m 0,8.135938 a 1,1 0 0 0 -0.99994,0.999939 1,1 0 0 0 0.99994,0.999939 1,1 0 0 0 1.00046,-0.999939 1,1 0 0 0 -1.00046,-0.999939 z" />
        <path
           id="path71"
           style="font-size:13.5414px;font-family:'Lucida Sans Unicode';-inkscape-font-specification:'Lucida Sans Unicode, Normal';fill:#3d0c11;fill-opacity:0.980392;stroke-width:1.72194;stroke-linecap:round;stroke-linejoin:bevel;paint-order:stroke fill markers"
           d="m 148.72736,41.116353 v 10.982276 1.27124 0.911572 1.27124 2.230355 h 2.34714 v -2.230355 h 5.52989 l 1.16014,2.230355 h 2.84065 l -1.18545,-2.230355 h 1.18545 v -1.27124 h -1.86086 l -0.48473,-0.911572 h 2.34559 v -1.27124 h -3.02152 l -1.1374,-2.140438 c 0.29512,-0.290826 0.5785,-0.596174 0.83716,-0.931209 0.82158,-1.071968 1.44757,-2.288431 1.87792,-3.649907 0.43036,-1.361476 0.64544,-2.781877 0.64544,-4.260722 h -2.41794 c 0,1.150213 -0.14051,2.265224 -0.42219,3.345016 -0.27386,1.071967 -0.69643,2.038344 -1.26763,2.899048 -0.56336,0.852878 -1.2832,1.533654 -2.15955,2.042252 -0.71146,0.406547 -1.53692,0.639739 -2.46497,0.716236 v -9.002552 z m 5.73505,10.319267 0.34468,0.663009 h -1.91461 c 0.48017,-0.141145 0.93955,-0.321667 1.37459,-0.54777 0.0678,-0.03522 0.12877,-0.07857 0.19534,-0.115239 z m -3.38791,1.934249 h 4.39405 l 0.47439,0.911572 h -4.86844 z" />
      </g>
    </g>
  </g>
</svg>
