<?xml version="1.0" encoding="UTF-8" standalone="no"?>
<!-- Created with Inkscape (http://www.inkscape.org/) -->

<svg
   width="67.733337mm"
   height="67.733337mm"
   viewBox="0 0 67.733337 67.733337"
   version="1.1"
   id="svg1"
   inkscape:version="1.4 (86a8ad7, 2024-10-11)"
   sodipodi:docname="Documento de Logos Sikil.svg"
   inkscape:export-batch-path="..\Logo Files\Iconic Mark"
   inkscape:export-batch-name=""
   xmlns:inkscape="http://www.inkscape.org/namespaces/inkscape"
   xmlns:sodipodi="http://sodipodi.sourceforge.net/DTD/sodipodi-0.dtd"
   xmlns:xlink="http://www.w3.org/1999/xlink"
   xmlns="http://www.w3.org/2000/svg"
   xmlns:svg="http://www.w3.org/2000/svg">
  <sodipodi:namedview
     id="namedview1"
     pagecolor="#b9b9b9"
     bordercolor="#000000"
     borderopacity="0.25"
     inkscape:showpageshadow="2"
     inkscape:pageopacity="0.0"
     inkscape:pagecheckerboard="0"
     inkscape:deskcolor="#d1c2c2"
     inkscape:document-units="mm"
     inkscape:zoom="0.69670057"
     inkscape:cx="577.00542"
     inkscape:cy="195.92348"
     inkscape:window-width="1147"
     inkscape:window-height="755"
     inkscape:window-x="182"
     inkscape:window-y="0"
     inkscape:window-maximized="0"
     inkscape:current-layer="layer1"
     showguides="true" />
  <defs
     id="defs1">
    <color-profile
       name="sRGB-IEC61966-2.1"
       xlink:href="file:///C:/WINDOWS/system32/spool/drivers/color/sRGB%20Color%20Space%20Profile.icm"
       id="color-profile3" />
    <color-profile
       name="Agfa-:-Swop-Standard"
       xlink:href="file:///C:/WINDOWS/system32/spool/drivers/color/RSWOP.icm"
       id="color-profile4" />
  </defs>
  <g
     inkscape:label="Capa 1"
     inkscape:groupmode="layer"
     id="layer1"
     transform="translate(-52,-177.8)">
    <g
       id="Logo_Color"
       transform="matrix(1.9999999,0,0,1.9999999,35.06667,8.4666818)">
      <circle
         style="fill:#3d0c11;fill-opacity:1;stroke:none;stroke-width:0.468569;stroke-linecap:round;stroke-linejoin:bevel;stroke-dasharray:none;paint-order:stroke fill markers"
         id="path277"
         cx="25.4"
         cy="101.6"
         r="16.933334" />
      <path
         id="path58"
         style="fill:#f96900;fill-opacity:1;stroke:none;stroke-width:0.267306;stroke-dasharray:none;paint-order:stroke fill markers"
         d="m 22.989816,92.569373 2.410185,1.650669 2.410185,-1.650669 h -2.410185 z m 0.953114,10.112207 -0.612717,-1.2789 -0.987155,1.30864 2.212583,1.9418 -3.599344,0.70522 -0.561657,-2.40909 2.731331,-2.974174 -0.885032,-4.223333 -0.510598,1.338381 -2.825295,0.148708 3.506094,-3.985397 2.988861,1.933214 2.98886,-1.933214 3.506095,3.985397 -2.825301,-0.148708 -0.510593,-1.338381 -0.885036,4.223333 2.731331,3.063404 -0.646753,2.31986 -3.514244,-0.70522 2.212584,-1.9418 -0.987155,-1.30864 -0.612717,1.2789 -1.457071,0.47587 z m -1.670225,-3.717724 h -1.529514 l -0.782912,-1.069811 -1.53179,1.664646 1.497748,2.736249 z m -0.814678,9.325724 v -1.77131 l 3.941974,-0.86251 3.924956,0.87738 0.02408,1.64513 -3.949028,2.43004 z m 7.069269,-9.325724 h 1.529514 l 0.782913,-1.069811 1.531789,1.664646 -1.497748,2.736249 z" />
      <path
         id="path80"
         d="m 37.400506,109.47003 c 0.323511,-0.4721 0.62067,-0.96134 0.888783,-1.46503 l -1.426861,-0.75952 c -0.423487,0.78928 -0.92892,1.54174 -1.501653,2.24273 l 2.518574,2.05058 c 1.127951,-1.38932 2.040419,-2.95306 2.676149,-4.62995 l -3.012011,-1.14782 c 0.51209,-1.33512 0.788278,-2.74255 0.767302,-4.16102 h 3.260392 c -0.01339,1.1738 -0.164005,2.32652 -0.436049,3.44232 l -1.565217,-0.37989 c 0.129963,-0.53546 0.227325,-1.07916 0.289634,-1.62866 m -11.55854,12.77428 c 0.554217,-0.12733 1.09991,-0.28964 1.634384,-0.48422 l -0.551206,-1.51405 c -0.832676,0.30491 -1.69217,0.51788 -2.563829,0.62425 l 0.412041,3.20444 c 1.800252,-0.24069 3.528087,-0.79885 5.122238,-1.61322 l -1.477719,-2.87392 c 1.279763,-0.66334 2.466689,-1.54206 3.499512,-2.57488 l 2.298345,2.29834 c -0.806476,0.80647 -1.692121,1.53378 -2.641081,2.16606 l -0.901854,-1.34673 c 0.460709,-0.30852 0.905568,-0.64203 1.332114,-0.99809 m -16.933987,0.90447 c 0.472098,0.32351 0.96134,0.62068 1.465032,0.88879 l 0.759513,-1.42686 c -0.789273,-0.42349 -1.541735,-0.92893 -2.242727,-1.50166 l -2.050582,2.51858 c 1.389327,1.12795 2.953062,2.04042 4.629949,2.67614 l 1.147816,-3.012 c 1.335124,0.51209 2.742554,0.78828 4.161022,0.76731 l 6e-6,3.26037 c -1.173803,-0.0133 -2.326524,-0.16399 -3.442325,-0.43604 l 0.379894,-1.56521 c 0.535459,0.12996 1.079161,0.22732 1.628664,0.28963 M 11.191955,104.501 c 0.12733,0.55422 0.289633,1.09991 0.484214,1.63439 l 1.514054,-0.55121 c -0.304911,-0.83267 -0.517878,-1.69217 -0.624247,-2.56383 l -3.204438,0.41204 c 0.2406861,1.80026 0.798843,3.52809 1.61321,5.12224 l 2.873918,-1.47772 c 0.663351,1.27977 1.542068,2.4667 2.574891,3.49952 l -2.298348,2.29834 c -0.806475,-0.80648 -1.533782,-1.69212 -2.166063,-2.64108 l 1.346732,-0.90186 c 0.30852,0.46071 0.642035,0.90557 0.99809,1.33212 M 13.399511,93.72996 c -0.323513,0.472098 -0.620674,0.961341 -0.888788,1.465036 l 1.42686,0.759513 c 0.423487,-0.789276 0.928925,-1.541738 1.501657,-2.242729 l -2.518573,-2.050584 c -1.127951,1.389328 -2.040423,2.953063 -2.676151,4.629948 l 3.012007,1.147822 c -0.512092,1.33512 -0.788283,2.742544 -0.76731,4.161024 l -3.260389,-1e-5 c 0.013372,-1.1738 0.1640062,-2.326519 0.4360561,-3.442316 l 1.5652129,0.379896 c -0.129962,0.535454 -0.227324,1.079158 -0.289637,1.62866 M 22.499014,87.391956 c -0.554218,0.12733 -1.09991,0.289632 -1.634379,0.484213 l 0.551201,1.514054 c 0.83267,-0.304909 1.692169,-0.517875 2.563829,-0.624246 l -0.412036,-3.204436 c -1.800257,0.240684 -3.528087,0.79884 -5.122238,1.613204 l 1.477714,2.873919 c -1.279769,0.66335 -2.466695,1.542068 -3.49952,2.574888 l -2.298341,-2.298349 c 0.806478,-0.806473 1.692125,-1.533779 2.641086,-2.16606 l 0.901853,1.346732 c -0.460713,0.308521 -0.905569,0.642035 -1.332117,0.99809 m 16.933987,-0.904444 c -0.472096,-0.323513 -0.961337,-0.620674 -1.465029,-0.888789 l -0.759519,1.42686 c 0.789279,0.423489 1.541738,0.928925 2.24273,1.501659 l 2.050585,-2.518572 c -1.389327,-1.127953 -2.953062,-2.040425 -4.629949,-2.676154 l -1.147821,3.012006 c -1.335119,-0.512093 -2.742549,-0.788286 -4.161017,-0.767315 l 5e-6,-3.260388 c 1.173797,0.01337 2.326518,0.164008 3.442319,0.436059 l -0.379899,1.565212 C 27.927005,87.300138 27.383296,87.202775 26.833794,87.14046 M 39.608052,98.699029 C 39.480724,98.144813 39.318423,97.59912 39.123843,97.064646 l -1.514057,0.551204 c 0.304906,0.832673 0.517874,1.692166 0.624242,2.56383 l 3.204443,-0.412036 c -0.240686,-1.800254 -0.79884,-3.528088 -1.613202,-5.12224 l -2.873925,1.477713 c -0.663347,-1.279768 -1.54206,-2.466696 -2.574883,-3.499522 l 2.298351,-2.298338 c 0.806471,0.806478 1.533779,1.692126 2.166059,2.641088 l -1.346734,0.901851 c -0.30852,-0.460713 -0.642033,-0.905569 -0.998088,-1.332118"
         style="fill:none;stroke:#8ba251;stroke-width:0.73062;stroke-linecap:round;stroke-linejoin:bevel;stroke-dasharray:none;stroke-opacity:1;paint-order:stroke fill markers" />
      <path
         id="path81"
         d="m 36.435258,102.16048 c -0.01434,0.24545 -0.03805,0.48966 -0.07065,0.73228 l 0.685599,0.0922 c 0.06267,-0.45629 0.09659,-0.91861 0.09974,-1.38495 h -1.396566 c 0.0053,0.64876 -0.0641,1.29268 -0.199131,1.92337 l 1.349354,0.29067 c -0.156353,0.72198 -0.384149,1.42516 -0.674984,2.1011 l -1.26864,-0.54783 c 0.164634,-0.3797 0.305938,-0.76817 0.42173,-1.16326 l 0.661977,0.19391 c -0.0665,0.22702 -0.140679,0.4518 -0.222197,0.67401 m -0.815446,1.73925 c -0.122544,0.21244 -0.251936,0.42118 -0.387805,0.62584 l 0.578342,0.38395 c 0.252423,-0.38136 0.483727,-0.77639 0.691907,-1.18308 l -1.231175,-0.63265 c -0.298837,0.57905 -0.652092,1.13343 -1.051375,1.65474 l 1.104831,0.84419 c -0.446982,0.58624 -0.945568,1.13383 -1.487366,1.63436 l -0.944986,-1.02222 c 0.307758,-0.28472 0.600234,-0.58627 0.875253,-0.90249 l 0.525367,0.45632 c -0.156491,0.18017 -0.318336,0.35578 -0.485204,0.5265 m -1.456737,1.27076 c -0.197665,0.14635 -0.399701,0.28653 -0.605753,0.42017 l 0.37764,0.58226 c 0.384011,-0.24828 0.754549,-0.51786 1.109609,-0.80676 l -0.878882,-1.07839 c -0.509069,0.41566 -1.052724,0.78682 -1.622573,1.10508 l 0.673407,1.21079 c -0.643927,0.35682 -1.319631,0.65514 -2.018708,0.88658 l -0.43443,-1.3097 c 0.391176,-0.13004 0.775129,-0.28497 1.149684,-0.46263 l 0.295296,0.62528 c -0.214429,0.10126 -0.431895,0.19566 -0.65206,0.28284 m -1.838114,0.54235 c -0.239712,0.0472 -0.48133,0.0858 -0.724487,0.1153 l 0.08348,0.68713 c 0.457449,-0.0571 0.909071,-0.14304 1.352852,-0.25597 l -0.339683,-1.33724 c -0.625618,0.15859 -1.265994,0.25285 -1.912731,0.27437 l 0.05508,1.3905 c -0.135202,0.006 -0.270796,0.01 -0.406728,0.0105 -0.615305,-0.004 -1.223613,-0.0619 -1.820312,-0.16854 l 0.240559,-1.36038 c 0.404791,0.0707 0.81434,0.11402 1.226476,0.12781 l -0.02768,0.69524 c -0.238421,-0.009 -0.475773,-0.0278 -0.711713,-0.0546 m -1.876028,-0.39733 c -0.233077,-0.0726 -0.463688,-0.15325 -0.691462,-0.24164 l -0.249751,0.64366 c 0.426096,0.16482 0.862039,0.3047 1.305825,0.41763 l 0.339688,-1.33723 c -0.625618,-0.15859 -1.236478,-0.38152 -1.824186,-0.66039 l -0.590793,1.25046 c -0.665824,-0.31338 -1.302909,-0.68828 -1.902863,-1.11631 l 0.808392,-1.13017 c 0.339662,0.24366 0.692145,0.46801 1.055265,0.67088 l -0.336799,0.60535 c -0.207597,-0.1155 -0.411803,-0.23752 -0.612278,-0.36572 m -1.537492,-1.16858 c -0.18353,-0.16424 -0.362122,-0.33409 -0.535406,-0.50918 l -0.494789,0.48967 c 0.32209,0.32549 0.661669,0.63368 1.016728,0.92257 l 0.878886,-1.07839 c -0.509069,-0.41567 -0.983549,-0.87584 -1.415044,-1.37211 l -1.050855,0.91248 c -0.483233,-0.55716 -0.917897,-1.15601 -1.295595,-1.78817 l 1.189322,-0.71307 c 0.214839,0.35693 0.450546,0.70261 0.704946,1.03486 l -0.552477,0.42201 c -0.144722,-0.18946 -0.283732,-0.38312 -0.416693,-0.58064 m -0.939042,-1.67992 c -0.100911,-0.22283 -0.194413,-0.44879 -0.280136,-0.67752 l -0.646375,0.24223 c 0.159929,0.42801 0.34499,0.84635 0.553171,1.25305 l 1.231176,-0.63265 c -0.298838,-0.57906 -0.543253,-1.18278 -0.724852,-1.80278 l -1.324013,0.3876 c -0.20696,-0.70727 -0.345519,-1.43639 -0.40728,-2.17898 l 1.383346,-0.10906 c 0.03032,0.4105 0.08955,0.8178 0.175528,1.21973 l -0.674704,0.14522 c -0.0498,-0.23138 -0.09157,-0.46464 -0.124963,-0.69943 m -0.081,-1.92805 c 0.01435,-0.24545 0.03803,-0.48967 0.07065,-0.73229 l -0.685601,-0.0922 c -0.06267,0.45629 -0.09659,0.91861 -0.09974,1.38495 h 1.396568 c -0.0051,-0.64876 0.0641,-1.29268 0.19913,-1.923364 l -1.349354,-0.290672 c 0.156353,-0.721989 0.384147,-1.425157 0.674984,-2.101107 L 15.84,97.832675 c -0.164637,0.379692 -0.30594,0.768169 -0.421735,1.163259 L 14.756302,98.80203 c 0.0665,-0.227016 0.140678,-0.451799 0.222197,-0.674014 m 0.815449,-1.739247 c 0.122542,-0.212438 0.251933,-0.421173 0.387806,-0.625835 L 15.603409,95.37898 c -0.252419,0.381363 -0.483724,0.776395 -0.691907,1.183086 l 1.231175,0.63265 c 0.298837,-0.579055 0.652095,-1.133435 1.051378,-1.654745 l -1.104833,-0.844187 c 0.44698,-0.586239 0.945569,-1.133825 1.48737,-1.634361 l 0.944988,1.02222 c -0.30776,0.284714 -0.600237,0.58627 -0.875262,0.902492 l -0.52536,-0.456319 c 0.156489,-0.180166 0.318334,-0.355779 0.485199,-0.526501 m 1.45674,-1.270758 c 0.197665,-0.146354 0.399706,-0.286536 0.605753,-0.420171 L 19.291015,91.730121 C 18.906999,91.978399 18.53646,92.24799 18.1814,92.536879 l 0.878883,1.078393 c 0.509068,-0.415662 1.052724,-0.78682 1.622578,-1.105076 l -0.673407,-1.210797 c 0.643922,-0.356807 1.319625,-0.65513 2.018707,-0.886569 l 0.434425,1.309696 c -0.391176,0.13004 -0.775129,0.284972 -1.149678,0.462626 L 21.017612,91.55988 c 0.214429,-0.101269 0.43189,-0.195663 0.652055,-0.282846 m 1.838113,-0.542348 c 0.239713,-0.0472 0.481335,-0.08576 0.724488,-0.115297 l -0.08348,-0.687123 c -0.457454,0.05704 -0.909072,0.143033 -1.352857,0.255968 l 0.339688,1.337233 c 0.625617,-0.158591 1.265994,-0.252844 1.912725,-0.274364 l -0.05508,-1.390504 c 0.135197,-0.0061 0.270785,-0.0096 0.406717,-0.01055 0.615305,0.0042 1.223619,0.06187 1.820323,0.168536 l -0.240559,1.360378 C 26.574954,91.308273 26.1654,91.264947 25.753264,91.251154 l 0.02767,-0.695236 c 0.238427,0.0095 0.475774,0.02781 0.711719,0.05464 m 1.876022,0.397335 c 0.233077,0.07258 0.463688,0.153247 0.691462,0.241629 l 0.249757,-0.643654 c -0.426096,-0.164816 -0.862045,-0.304696 -1.305825,-0.417632 l -0.339688,1.337232 c 0.625618,0.15859 1.236477,0.381519 1.824186,0.660387 L 30.07936,90.9354 c 0.665824,0.313377 1.302909,0.688278 1.902862,1.116307 L 31.173844,93.18189 C 30.834177,92.938228 30.481699,92.713877 30.11858,92.511005 l 0.336799,-0.60535 c 0.207597,0.115501 0.411803,0.237518 0.612277,0.365716 m 1.537489,1.168584 c 0.183531,0.164237 0.362119,0.334088 0.535405,0.509182 l 0.494792,-0.489672 c -0.322093,-0.325486 -0.66167,-0.633677 -1.01673,-0.922568 l -0.878888,1.078391 c 0.509069,0.415663 0.983552,0.875832 1.415045,1.372108 l 1.050851,-0.912482 c 0.483235,0.557163 0.917898,1.156018 1.295596,1.788169 l -1.189318,0.713071 c -0.214842,-0.356931 -0.450549,-0.702608 -0.704951,-1.034858 l 0.552482,-0.422011 c 0.144722,0.189464 0.283729,0.383126 0.416692,0.580647 m 0.939038,1.679917 c 0.100912,0.222822 0.194416,0.448785 0.280136,0.677522 l 0.646377,-0.242239 c -0.15993,-0.428001 -0.34499,-0.846351 -0.55317,-1.253042 l -1.231175,0.632646 c 0.298837,0.579055 0.543248,1.182782 0.724847,1.802784 l 1.324018,-0.387605 c 0.206957,0.707267 0.345514,1.436395 0.407278,2.178985 l -1.383347,0.10906 c -0.03032,-0.4105 -0.08955,-0.8178 -0.17553,-1.219731 l 0.674703,-0.14522 c 0.0498,0.231381 0.09157,0.464638 0.124963,0.699431"
         style="fill:none;stroke:#ffd166;stroke-width:0.312611;stroke-linecap:round;stroke-linejoin:bevel;stroke-dasharray:none;stroke-opacity:1;paint-order:stroke fill markers" />
    </g>
  </g>
</svg>
