<?xml version="1.0" encoding="UTF-8" standalone="no"?>
<!-- Created with Inkscape (http://www.inkscape.org/) -->

<svg
   width="67.733337mm"
   height="67.733337mm"
   viewBox="0 0 67.733337 67.733337"
   version="1.1"
   id="svg1"
   inkscape:version="1.4 (86a8ad7, 2024-10-11)"
   sodipodi:docname="Documento de Logos Sikil.svg"
   inkscape:export-batch-path="..\Logo Files\Iconic Mark"
   inkscape:export-batch-name=""
   xmlns:inkscape="http://www.inkscape.org/namespaces/inkscape"
   xmlns:sodipodi="http://sodipodi.sourceforge.net/DTD/sodipodi-0.dtd"
   xmlns:xlink="http://www.w3.org/1999/xlink"
   xmlns="http://www.w3.org/2000/svg"
   xmlns:svg="http://www.w3.org/2000/svg">
  <sodipodi:namedview
     id="namedview1"
     pagecolor="#b9b9b9"
     bordercolor="#000000"
     borderopacity="0.25"
     inkscape:showpageshadow="2"
     inkscape:pageopacity="0.0"
     inkscape:pagecheckerboard="0"
     inkscape:deskcolor="#d1c2c2"
     inkscape:document-units="mm"
     inkscape:zoom="0.69670057"
     inkscape:cx="577.00542"
     inkscape:cy="195.92348"
     inkscape:window-width="1147"
     inkscape:window-height="755"
     inkscape:window-x="182"
     inkscape:window-y="0"
     inkscape:window-maximized="0"
     inkscape:current-layer="layer1"
     showguides="true" />
  <defs
     id="defs1">
    <color-profile
       name="sRGB-IEC61966-2.1"
       xlink:href="file:///C:/WINDOWS/system32/spool/drivers/color/sRGB%20Color%20Space%20Profile.icm"
       id="color-profile3" />
    <color-profile
       name="Agfa-:-Swop-Standard"
       xlink:href="file:///C:/WINDOWS/system32/spool/drivers/color/RSWOP.icm"
       id="color-profile4" />
  </defs>
  <g
     inkscape:label="Capa 1"
     inkscape:groupmode="layer"
     id="layer1"
     transform="translate(-210.75003,-177.80003)">
    <g
       id="Logo_Dark"
       transform="matrix(1.9999999,0,0,1.9999999,193.8167,-160.86661)">
      <circle
         style="fill:#1b2021;fill-opacity:1;stroke:none;stroke-width:0.468569;stroke-linecap:round;stroke-linejoin:bevel;stroke-dasharray:none;paint-order:stroke fill markers"
         id="circle3"
         cx="25.4"
         cy="186.26666"
         r="16.933334" />
      <path
         id="path4"
         style="fill:#dbe9ee;fill-opacity:1;stroke:none;stroke-width:0.267306;stroke-dasharray:none;paint-order:stroke fill markers"
         d="m 22.989816,177.23604 2.410185,1.65067 2.410185,-1.65067 h -2.410185 z m 0.953114,10.1122 -0.612717,-1.2789 -0.987155,1.30864 2.212583,1.9418 -3.599344,0.70522 -0.561657,-2.40908 2.731331,-2.97418 -0.885032,-4.22333 -0.510598,1.33838 -2.825295,0.14871 3.506094,-3.9854 2.988861,1.93321 2.98886,-1.93321 3.506095,3.9854 -2.825301,-0.14871 -0.510593,-1.33838 -0.885036,4.22333 2.731331,3.06341 -0.646753,2.31985 -3.514244,-0.70522 2.212584,-1.9418 -0.987155,-1.30864 -0.612717,1.2789 -1.457071,0.47587 z m -1.670225,-3.71772 h -1.529514 l -0.782912,-1.06981 -1.53179,1.66465 1.497748,2.73624 z m -0.814678,9.32572 v -1.77131 l 3.941974,-0.86251 3.924956,0.87738 0.02408,1.64513 -3.949028,2.43004 z m 7.069269,-9.32572 h 1.529514 l 0.782913,-1.06981 1.531789,1.66465 -1.497748,2.73624 z" />
      <path
         id="path5"
         d="m 37.400506,194.1367 c 0.323511,-0.4721 0.62067,-0.96135 0.888783,-1.46504 l -1.426861,-0.75951 c -0.423487,0.78927 -0.92892,1.54174 -1.501653,2.24273 l 2.518574,2.05058 c 1.127951,-1.38933 2.040419,-2.95307 2.676149,-4.62995 l -3.012011,-1.14782 c 0.51209,-1.33512 0.788278,-2.74255 0.767302,-4.16102 h 3.260392 c -0.01339,1.17379 -0.164005,2.32652 -0.436049,3.44232 l -1.565217,-0.3799 c 0.129963,-0.53545 0.227325,-1.07916 0.289634,-1.62866 m -11.55854,12.77428 c 0.554217,-0.12733 1.09991,-0.28963 1.634384,-0.48421 l -0.551206,-1.51405 c -0.832676,0.30491 -1.69217,0.51788 -2.563829,0.62424 l 0.412041,3.20444 c 1.800252,-0.24069 3.528087,-0.79884 5.122238,-1.61321 L 30.876918,197.818 c 1.279763,-0.66335 2.466689,-1.54207 3.499512,-2.57489 l 2.298345,2.29835 c -0.806476,0.80647 -1.692121,1.53378 -2.641081,2.16606 l -0.901854,-1.34673 c 0.460709,-0.30852 0.905568,-0.64204 1.332114,-0.9981 m -16.933987,0.90448 c 0.472098,0.32351 0.96134,0.62067 1.465032,0.88878 l 0.759513,-1.42686 c -0.789273,-0.42348 -1.541735,-0.92892 -2.242727,-1.50166 l -2.050582,2.51858 c 1.389327,1.12795 2.953062,2.04042 4.629949,2.67615 l 1.147816,-3.01201 c 1.335124,0.51209 2.742554,0.78828 4.161022,0.76731 l 6e-6,3.26038 c -1.173803,-0.0133 -2.326524,-0.164 -3.442325,-0.43605 l 0.379894,-1.56521 c 0.535459,0.12996 1.079161,0.22732 1.628664,0.28963 M 11.191955,189.16767 c 0.12733,0.55422 0.289633,1.09991 0.484214,1.63438 l 1.514054,-0.55121 c -0.304911,-0.83267 -0.517878,-1.69216 -0.624247,-2.56382 l -3.204438,0.41204 c 0.2406861,1.80025 0.798843,3.52809 1.61321,5.12223 l 2.873918,-1.47771 c 0.663351,1.27976 1.542068,2.46669 2.574891,3.49951 l -2.298348,2.29834 c -0.806475,-0.80647 -1.533782,-1.69212 -2.166063,-2.64108 l 1.346732,-0.90185 c 0.30852,0.46071 0.642035,0.90557 0.99809,1.33211 m -0.904457,-16.93399 c -0.323513,0.47211 -0.620674,0.96135 -0.888788,1.46504 l 1.42686,0.75951 c 0.423487,-0.78927 0.928925,-1.54174 1.501657,-2.24273 l -2.518573,-2.05058 c -1.127951,1.38933 -2.040423,2.95307 -2.676151,4.62995 l 3.012007,1.14782 c -0.512092,1.33512 -0.788283,2.74255 -0.76731,4.16102 l -3.260389,-1e-5 c 0.013372,-1.17379 0.1640062,-2.32651 0.4360561,-3.44231 l 1.5652129,0.37989 c -0.129962,0.53546 -0.227324,1.07916 -0.289637,1.62867 m 11.558558,-12.77427 c -0.554218,0.12733 -1.09991,0.28963 -1.634379,0.48421 l 0.551201,1.51406 c 0.83267,-0.30491 1.692169,-0.51788 2.563829,-0.62425 l -0.412036,-3.20443 c -1.800257,0.24068 -3.528087,0.79884 -5.122238,1.6132 l 1.477714,2.87392 c -1.279769,0.66335 -2.466695,1.54207 -3.49952,2.57489 l -2.298341,-2.29835 c 0.806478,-0.80648 1.692125,-1.53378 2.641086,-2.16606 l 0.901853,1.34673 c -0.460713,0.30852 -0.905569,0.64203 -1.332117,0.99809 m 16.933987,-0.90444 c -0.472096,-0.32352 -0.961337,-0.62068 -1.465029,-0.88879 l -0.759519,1.42685 c 0.789279,0.4235 1.541738,0.92893 2.24273,1.50167 l 2.050585,-2.51858 c -1.389327,-1.12795 -2.953062,-2.04042 -4.629949,-2.67615 l -1.147821,3.01201 c -1.335119,-0.5121 -2.742549,-0.78829 -4.161017,-0.76732 l 5e-6,-3.26039 c 1.173797,0.0134 2.326518,0.16401 3.442319,0.43606 l -0.379899,1.56521 c -0.535453,-0.12996 -1.079162,-0.22732 -1.628664,-0.28964 m 12.774258,11.55857 c -0.127328,-0.55421 -0.289629,-1.09991 -0.484209,-1.63438 l -1.514057,0.55121 c 0.304906,0.83267 0.517874,1.69216 0.624242,2.56382 l 3.204443,-0.41203 c -0.240686,-1.80026 -0.79884,-3.52809 -1.613202,-5.12224 l -2.873925,1.47771 c -0.663347,-1.27977 -1.54206,-2.46669 -2.574883,-3.49952 l 2.298351,-2.29834 c 0.806471,0.80648 1.533779,1.69212 2.166059,2.64109 l -1.346734,0.90185 c -0.30852,-0.46071 -0.642033,-0.90557 -0.998088,-1.33212"
         style="fill:none;stroke:#7353ba;stroke-width:0.73062;stroke-linecap:round;stroke-linejoin:bevel;stroke-dasharray:none;stroke-opacity:1;paint-order:stroke fill markers" />
      <path
         id="path6"
         d="m 36.435258,186.82714 c -0.01434,0.24545 -0.03805,0.48967 -0.07065,0.73229 l 0.685599,0.0922 c 0.06267,-0.4563 0.09659,-0.91862 0.09974,-1.38495 h -1.396566 c 0.0053,0.64875 -0.0641,1.29268 -0.199131,1.92336 l 1.349354,0.29067 c -0.156353,0.72199 -0.384149,1.42516 -0.674984,2.10111 l -1.26864,-0.54784 c 0.164634,-0.37969 0.305938,-0.76817 0.42173,-1.16325 l 0.661977,0.1939 c -0.0665,0.22702 -0.140679,0.45181 -0.222197,0.67402 m -0.815446,1.73925 c -0.122544,0.21244 -0.251936,0.42117 -0.387805,0.62583 l 0.578342,0.38396 c 0.252423,-0.38137 0.483727,-0.7764 0.691907,-1.18309 l -1.231175,-0.63265 c -0.298837,0.57906 -0.652092,1.13344 -1.051375,1.65475 l 1.104831,0.84418 c -0.446982,0.58625 -0.945568,1.13383 -1.487366,1.63437 l -0.944986,-1.02222 c 0.307758,-0.28472 0.600234,-0.58628 0.875253,-0.9025 l 0.525367,0.45632 c -0.156491,0.18017 -0.318336,0.35578 -0.485204,0.52651 M 31.7371,195.1341 c -0.197665,0.14636 -0.399701,0.28654 -0.605753,0.42018 l 0.37764,0.58226 c 0.384011,-0.24828 0.754549,-0.51787 1.109609,-0.80676 l -0.878882,-1.07839 c -0.509069,0.41566 -1.052724,0.78682 -1.622573,1.10508 l 0.673407,1.21079 c -0.643927,0.35681 -1.319631,0.65514 -2.018708,0.88657 l -0.43443,-1.30969 c 0.391176,-0.13004 0.775129,-0.28497 1.149684,-0.46263 l 0.295296,0.62527 c -0.214429,0.10127 -0.431895,0.19566 -0.65206,0.28285 m -1.838114,0.54235 c -0.239712,0.0472 -0.48133,0.0857 -0.724487,0.1153 l 0.08348,0.68712 c 0.457449,-0.057 0.909071,-0.14303 1.352852,-0.25597 l -0.339683,-1.33723 c -0.625618,0.15859 -1.265994,0.25284 -1.912731,0.27436 l 0.05508,1.3905 c -0.135202,0.006 -0.270796,0.01 -0.406728,0.0105 -0.615305,-0.004 -1.223613,-0.0619 -1.820312,-0.16853 l 0.240559,-1.36038 c 0.404791,0.0707 0.81434,0.11401 1.226476,0.12781 l -0.02768,0.69523 c -0.238421,-0.009 -0.475773,-0.0278 -0.711713,-0.0546 m -1.876028,-0.39733 c -0.233077,-0.0726 -0.463688,-0.15324 -0.691462,-0.24163 l -0.249751,0.64366 c 0.426096,0.16481 0.862039,0.30469 1.305825,0.41762 l 0.339688,-1.33723 c -0.625618,-0.15859 -1.236478,-0.38151 -1.824186,-0.66038 l -0.590793,1.25045 c -0.665824,-0.31338 -1.302909,-0.68827 -1.902863,-1.1163 l 0.808392,-1.13018 c 0.339662,0.24366 0.692145,0.46801 1.055265,0.67088 l -0.336799,0.60535 c -0.207597,-0.1155 -0.411803,-0.23751 -0.612278,-0.36571 m -1.537492,-1.16858 c -0.18353,-0.16424 -0.362122,-0.33409 -0.535406,-0.50919 l -0.494789,0.48968 c 0.32209,0.32548 0.661669,0.63367 1.016728,0.92257 l 0.878886,-1.0784 c -0.509069,-0.41566 -0.983549,-0.87583 -1.415044,-1.37211 l -1.050855,0.91249 c -0.483233,-0.55717 -0.917897,-1.15602 -1.295595,-1.78817 L 16.4881,191.2905 c 0.214839,0.35693 0.450546,0.70261 0.704946,1.03485 l -0.552477,0.42201 c -0.144722,-0.18946 -0.283732,-0.38312 -0.416693,-0.58064 m -0.939042,-1.67992 c -0.100911,-0.22282 -0.194413,-0.44878 -0.280136,-0.67752 l -0.646375,0.24224 c 0.159929,0.428 0.34499,0.84635 0.553171,1.25305 l 1.231176,-0.63266 c -0.298838,-0.57905 -0.543253,-1.18277 -0.724852,-1.80278 l -1.324013,0.38761 c -0.20696,-0.70727 -0.345519,-1.43639 -0.40728,-2.17899 l 1.383346,-0.10906 c 0.03032,0.4105 0.08955,0.81781 0.175528,1.21973 l -0.674704,0.14522 c -0.0498,-0.23138 -0.09157,-0.46464 -0.124963,-0.69943 m -0.081,-1.92805 c 0.01435,-0.24545 0.03803,-0.48967 0.07065,-0.73229 l -0.685601,-0.0922 c -0.06267,0.4563 -0.09659,0.91862 -0.09974,1.38496 h 1.396568 c -0.0051,-0.64876 0.0641,-1.29268 0.19913,-1.92337 l -1.349354,-0.29067 c 0.156353,-0.72199 0.384147,-1.42516 0.674984,-2.10111 l 1.268641,0.54784 c -0.164637,0.37969 -0.30594,0.76817 -0.421735,1.16326 l -0.661974,-0.19391 c 0.0665,-0.22702 0.140678,-0.45181 0.222197,-0.67402 m 0.815449,-1.73925 c 0.122542,-0.21243 0.251933,-0.42117 0.387806,-0.62583 l -0.578345,-0.38396 c -0.252419,0.38137 -0.483724,0.7764 -0.691907,1.18309 l 1.231175,0.63265 c 0.298837,-0.57905 0.652095,-1.13343 1.051378,-1.65475 l -1.104833,-0.84418 c 0.44698,-0.58624 0.945569,-1.13383 1.48737,-1.63436 l 0.944988,1.02222 c -0.30776,0.28471 -0.600237,0.58627 -0.875262,0.90249 l -0.52536,-0.45632 c 0.156489,-0.18016 0.318334,-0.35578 0.485199,-0.5265 m 1.45674,-1.27076 c 0.197665,-0.14635 0.399706,-0.28653 0.605753,-0.42017 l -0.377635,-0.58226 c -0.384016,0.24828 -0.754555,0.51787 -1.109615,0.80675 l 0.878883,1.0784 c 0.509068,-0.41567 1.052724,-0.78683 1.622578,-1.10508 l -0.673407,-1.2108 c 0.643922,-0.35681 1.319625,-0.65513 2.018707,-0.88656 l 0.434425,1.30969 c -0.391176,0.13004 -0.775129,0.28497 -1.149678,0.46263 l -0.295296,-0.62528 c 0.214429,-0.10126 0.43189,-0.19566 0.652055,-0.28284 m 1.838113,-0.54235 c 0.239713,-0.0472 0.481335,-0.0858 0.724488,-0.11529 l -0.08348,-0.68713 c -0.457454,0.057 -0.909072,0.14303 -1.352857,0.25597 l 0.339688,1.33723 c 0.625617,-0.15859 1.265994,-0.25284 1.912725,-0.27436 l -0.05508,-1.39051 c 0.135197,-0.006 0.270785,-0.01 0.406717,-0.0105 0.615305,0.004 1.223619,0.0619 1.820323,0.16854 l -0.240559,1.36038 c -0.404791,-0.0707 -0.814345,-0.11402 -1.226481,-0.12781 l 0.02767,-0.69524 c 0.238427,0.009 0.475774,0.0278 0.711719,0.0546 m 1.876022,0.39734 c 0.233077,0.0726 0.463688,0.15325 0.691462,0.24163 l 0.249757,-0.64366 c -0.426096,-0.16481 -0.862045,-0.30469 -1.305825,-0.41763 l -0.339688,1.33723 c 0.625618,0.15859 1.236477,0.38152 1.824186,0.66039 l 0.590793,-1.25046 c 0.665824,0.31338 1.302909,0.68828 1.902862,1.11631 l -0.808392,1.13018 c -0.339667,-0.24366 -0.692145,-0.46801 -1.055264,-0.67089 l 0.336799,-0.60534 c 0.207597,0.1155 0.411803,0.23751 0.612277,0.36571 m 1.537489,1.16859 c 0.183531,0.16423 0.362119,0.33408 0.535405,0.50918 l 0.494792,-0.48967 c -0.322093,-0.32549 -0.66167,-0.63368 -1.01673,-0.92257 l -0.878888,1.07839 c 0.509069,0.41566 0.983552,0.87583 1.415045,1.37211 l 1.050851,-0.91249 c 0.483235,0.55717 0.917898,1.15602 1.295596,1.78817 l -1.189318,0.71307 c -0.214842,-0.35693 -0.450549,-0.7026 -0.704951,-1.03485 l 0.552482,-0.42201 c 0.144722,0.18946 0.283729,0.38312 0.416692,0.58064 m 0.939038,1.67992 c 0.100912,0.22282 0.194416,0.44879 0.280136,0.67752 l 0.646377,-0.24224 c -0.15993,-0.428 -0.34499,-0.84635 -0.55317,-1.25304 l -1.231175,0.63265 c 0.298837,0.57905 0.543248,1.18278 0.724847,1.80278 l 1.324018,-0.38761 c 0.206957,0.70727 0.345514,1.4364 0.407278,2.17899 l -1.383347,0.10906 c -0.03032,-0.4105 -0.08955,-0.8178 -0.17553,-1.21973 l 0.674703,-0.14522 c 0.0498,0.23138 0.09157,0.46464 0.124963,0.69943"
         style="fill:none;stroke:#8ba251;stroke-width:0.312611;stroke-linecap:round;stroke-linejoin:bevel;stroke-dasharray:none;stroke-opacity:1;paint-order:stroke fill markers" />
    </g>
  </g>
</svg>
