<?xml version="1.0" encoding="UTF-8" standalone="no"?>
<!-- Created with Inkscape (http://www.inkscape.org/) -->

<svg
   width="67.733337mm"
   height="67.733337mm"
   viewBox="0 0 67.733337 67.733337"
   version="1.1"
   id="svg1"
   inkscape:version="1.4 (86a8ad7, 2024-10-11)"
   sodipodi:docname="Documento de Logos Sikil.svg"
   inkscape:export-batch-path="..\Logo Files\Iconic Mark"
   inkscape:export-batch-name=""
   xmlns:inkscape="http://www.inkscape.org/namespaces/inkscape"
   xmlns:sodipodi="http://sodipodi.sourceforge.net/DTD/sodipodi-0.dtd"
   xmlns:xlink="http://www.w3.org/1999/xlink"
   xmlns="http://www.w3.org/2000/svg"
   xmlns:svg="http://www.w3.org/2000/svg">
  <sodipodi:namedview
     id="namedview1"
     pagecolor="#b9b9b9"
     bordercolor="#000000"
     borderopacity="0.25"
     inkscape:showpageshadow="2"
     inkscape:pageopacity="0.0"
     inkscape:pagecheckerboard="0"
     inkscape:deskcolor="#d1c2c2"
     inkscape:document-units="mm"
     inkscape:zoom="0.69670057"
     inkscape:cx="577.00542"
     inkscape:cy="195.92348"
     inkscape:window-width="1147"
     inkscape:window-height="755"
     inkscape:window-x="182"
     inkscape:window-y="0"
     inkscape:window-maximized="0"
     inkscape:current-layer="layer1"
     showguides="true" />
  <defs
     id="defs1">
    <color-profile
       name="sRGB-IEC61966-2.1"
       xlink:href="file:///C:/WINDOWS/system32/spool/drivers/color/sRGB%20Color%20Space%20Profile.icm"
       id="color-profile3" />
    <color-profile
       name="Agfa-:-Swop-Standard"
       xlink:href="file:///C:/WINDOWS/system32/spool/drivers/color/RSWOP.icm"
       id="color-profile4" />
  </defs>
  <g
     inkscape:label="Capa 1"
     inkscape:groupmode="layer"
     id="layer1"
     transform="translate(-131.37501,-177.80001)">
    <g
       id="Logo_Light"
       transform="matrix(1.9999999,0,0,1.9999999,114.44168,-76.199975)">
      <circle
         style="fill:#5d737e;fill-opacity:1;stroke:none;stroke-width:0.468569;stroke-linecap:round;stroke-linejoin:bevel;stroke-dasharray:none;paint-order:stroke fill markers"
         id="circle9"
         cx="25.4"
         cy="143.93333"
         r="16.933334" />
      <path
         id="path9"
         style="fill:#ffd166;fill-opacity:1;stroke:none;stroke-width:0.267306;stroke-dasharray:none;paint-order:stroke fill markers"
         d="M 22.989815,134.90271 25.4,136.55338 27.810185,134.90271 H 25.4 Z m 0.953114,10.1122 -0.612717,-1.27889 -0.987155,1.30864 2.212583,1.9418 -3.599344,0.70522 -0.561657,-2.40909 2.731331,-2.97417 -0.885032,-4.22334 -0.510598,1.33838 -2.825295,0.14871 3.506095,-3.9854 2.98886,1.93322 2.98886,-1.93322 3.506095,3.9854 -2.825301,-0.14871 -0.510593,-1.33838 -0.885036,4.22334 2.731331,3.0634 -0.646753,2.31986 -3.514244,-0.70522 2.212584,-1.9418 -0.987155,-1.30864 -0.612717,1.27889 L 25.4,145.49079 Z M 22.272704,141.2972 H 20.74319 l -0.782912,-1.06982 -1.53179,1.66465 1.497748,2.73624 z m -0.814678,9.32572 v -1.77131 L 25.4,147.9891 l 3.924956,0.87738 0.02408,1.64513 -3.949028,2.43004 z m 7.06927,-9.32572 h 1.529514 l 0.782912,-1.06982 1.53179,1.66465 -1.497749,2.73624 z" />
      <path
         id="path10"
         d="m 37.400505,151.80337 c 0.323512,-0.4721 0.62067,-0.96134 0.888783,-1.46503 l -1.426861,-0.75952 c -0.423486,0.78928 -0.92892,1.54174 -1.501653,2.24273 l 2.518574,2.05058 c 1.127951,-1.38932 2.040419,-2.95306 2.676149,-4.62995 l -3.012011,-1.14782 c 0.51209,-1.33512 0.788278,-2.74255 0.767302,-4.16101 h 3.260392 c -0.01339,1.17379 -0.164005,2.32651 -0.436049,3.44231 l -1.565217,-0.37989 c 0.129963,-0.53546 0.227325,-1.07916 0.289634,-1.62866 m -11.55854,12.77428 c 0.554217,-0.12733 1.09991,-0.28964 1.634384,-0.48422 l -0.551206,-1.51405 c -0.832676,0.30491 -1.692169,0.51788 -2.563829,0.62425 l 0.412041,3.20443 c 1.800252,-0.24068 3.528087,-0.79884 5.122238,-1.61321 l -1.477719,-2.87392 c 1.279763,-0.66334 2.46669,-1.54206 3.499512,-2.57489 l 2.298345,2.29835 c -0.806476,0.80647 -1.692121,1.53378 -2.641081,2.16606 l -0.901854,-1.34673 c 0.460709,-0.30852 0.905569,-0.64203 1.332114,-0.99809 m -16.933984,0.90447 c 0.472096,0.32351 0.961337,0.62068 1.465029,0.88879 l 0.759513,-1.42686 c -0.789273,-0.42349 -1.541737,-0.92893 -2.24273,-1.50166 l -2.050579,2.51858 c 1.389327,1.12795 2.953062,2.04042 4.629949,2.67614 l 1.147816,-3.012 c 1.335124,0.51209 2.742554,0.78827 4.161022,0.7673 l 6e-6,3.26038 c -1.173803,-0.0133 -2.326524,-0.16399 -3.442325,-0.43604 l 0.379894,-1.56522 c 0.535459,0.12997 1.079162,0.22733 1.628664,0.28964 M 11.191954,146.83434 c 0.127328,0.55422 0.289634,1.09991 0.484214,1.63439 l 1.514052,-0.55121 c -0.304911,-0.83267 -0.517874,-1.69217 -0.624247,-2.56383 l -3.204438,0.41204 c 0.2406861,1.80025 0.798846,3.52809 1.613212,5.12224 l 2.87392,-1.47772 c 0.663348,1.27977 1.542066,2.4667 2.574888,3.49952 l -2.298345,2.29834 c -0.806477,-0.80648 -1.533785,-1.69212 -2.166065,-2.64108 l 1.346735,-0.90186 c 0.308515,0.46071 0.642032,0.90557 0.998088,1.33212 M 13.399511,136.0633 c -0.323512,0.4721 -0.620676,0.96134 -0.888789,1.46503 l 1.426861,0.75952 c 0.423487,-0.78928 0.928926,-1.54174 1.501659,-2.24274 l -2.518574,-2.05058 c -1.127951,1.38933 -2.040425,2.95307 -2.676155,4.62995 l 3.012011,1.14783 c -0.512095,1.33512 -0.788283,2.74254 -0.767312,4.16101 H 9.2288253 c 0.013388,-1.1738 0.1640046,-2.32652 0.4360545,-3.44232 l 1.5652112,0.3799 c -0.129963,0.53545 -0.227324,1.07916 -0.289634,1.62866 m 11.558556,-12.77427 c -0.554217,0.12733 -1.09991,0.28964 -1.634379,0.48422 l 0.551201,1.51405 c 0.832671,-0.30491 1.692169,-0.51788 2.563829,-0.62424 l -0.412036,-3.20444 c -1.800257,0.24068 -3.528086,0.79884 -5.122238,1.6132 l 1.477714,2.87392 c -1.279769,0.66335 -2.466695,1.54207 -3.499517,2.57489 l -2.298346,-2.29835 c 0.806482,-0.80647 1.692127,-1.53378 2.641087,-2.16606 l 0.901854,1.34673 c -0.460714,0.30852 -0.905569,0.64204 -1.332114,0.99809 m 16.933984,-0.90444 c -0.472096,-0.32352 -0.961337,-0.62068 -1.465029,-0.88879 l -0.759518,1.42686 c 0.789278,0.42349 1.541737,0.92892 2.24273,1.50166 l 2.050584,-2.51857 c -1.389327,-1.12796 -2.953062,-2.04043 -4.629949,-2.67616 l -1.147821,3.01201 c -1.335119,-0.5121 -2.742549,-0.78829 -4.161017,-0.76732 l 5e-6,-3.26039 c 1.173797,0.0134 2.326518,0.16401 3.442319,0.43606 l -0.379899,1.56521 c -0.535453,-0.12995 -1.079162,-0.22732 -1.628664,-0.28963 m 12.774258,11.55857 c -0.127328,-0.55422 -0.289629,-1.09991 -0.484209,-1.63439 l -1.514057,0.55121 c 0.304906,0.83267 0.517875,1.69217 0.624242,2.56382 l 3.204443,-0.41203 c -0.240686,-1.80025 -0.79884,-3.52808 -1.613201,-5.12224 l -2.873926,1.47771 c -0.663347,-1.27977 -1.54206,-2.46669 -2.574882,-3.49952 l 2.29835,-2.29833 c 0.806471,0.80647 1.533779,1.69212 2.166059,2.64108 l -1.346734,0.90185 c -0.30852,-0.46071 -0.642033,-0.90557 -0.998088,-1.33211"
         style="fill:none;stroke:#3d0c11;stroke-width:0.73062;stroke-linecap:round;stroke-linejoin:bevel;stroke-dasharray:none;stroke-opacity:1;paint-order:stroke fill markers" />
      <path
         id="path11"
         d="m 36.435258,144.49381 c -0.01434,0.24546 -0.03805,0.48967 -0.07065,0.73229 l 0.685598,0.0922 c 0.06267,-0.45629 0.09659,-0.91862 0.09974,-1.38495 H 35.75338 c 0.0053,0.64876 -0.0641,1.29268 -0.199131,1.92337 l 1.349354,0.29067 c -0.156353,0.72198 -0.384148,1.42516 -0.674984,2.1011 l -1.26864,-0.54783 c 0.164635,-0.3797 0.305938,-0.76817 0.42173,-1.16326 l 0.661977,0.19391 c -0.0665,0.22702 -0.140679,0.4518 -0.222197,0.67401 m -0.815446,1.73925 c -0.122544,0.21244 -0.251936,0.42118 -0.387805,0.62584 l 0.578342,0.38395 c 0.252423,-0.38136 0.483727,-0.77639 0.691907,-1.18308 l -1.231175,-0.63265 c -0.298837,0.57905 -0.652092,1.13343 -1.051375,1.65474 l 1.104831,0.84419 c -0.446982,0.58624 -0.945568,1.13383 -1.487366,1.63436 l -0.944985,-1.02222 c 0.307758,-0.28472 0.600233,-0.58627 0.875252,-0.90249 l 0.525367,0.45631 c -0.15649,0.18018 -0.318336,0.35578 -0.485203,0.52651 m -1.456738,1.27076 c -0.197665,0.14635 -0.399701,0.28653 -0.605753,0.42017 l 0.37764,0.58226 c 0.384011,-0.24828 0.754549,-0.51787 1.109609,-0.80676 l -0.878882,-1.07839 c -0.509069,0.41566 -1.052724,0.78682 -1.622573,1.10508 l 0.673407,1.21079 c -0.643927,0.35682 -1.319631,0.65514 -2.018708,0.88658 l -0.43443,-1.3097 c 0.391176,-0.13004 0.775129,-0.28497 1.149684,-0.46263 l 0.295296,0.62528 c -0.214429,0.10126 -0.431895,0.19566 -0.65206,0.28284 m -1.838114,0.54235 c -0.239712,0.0472 -0.48133,0.0858 -0.724487,0.1153 l 0.08348,0.68712 c 0.457449,-0.057 0.909072,-0.14303 1.352852,-0.25596 l -0.339683,-1.33724 c -0.625618,0.15859 -1.265994,0.25285 -1.912731,0.27437 l 0.05508,1.3905 c -0.135202,0.006 -0.270796,0.01 -0.406728,0.0105 -0.615304,-0.004 -1.223613,-0.0619 -1.820312,-0.16854 l 0.240559,-1.36038 c 0.404791,0.0707 0.81434,0.11402 1.226476,0.12781 l -0.02767,0.69524 c -0.238422,-0.009 -0.475774,-0.0278 -0.711714,-0.0546 m -1.876028,-0.39733 c -0.233077,-0.0726 -0.463687,-0.15325 -0.691462,-0.24164 l -0.249751,0.64366 c 0.426096,0.16481 0.862039,0.30469 1.305825,0.41763 l 0.339688,-1.33723 c -0.625618,-0.15859 -1.236477,-0.38152 -1.824186,-0.66039 l -0.590793,1.25046 c -0.665824,-0.31338 -1.302909,-0.68828 -1.902862,-1.11631 l 0.808392,-1.13018 c 0.339661,0.24366 0.692144,0.46802 1.055264,0.67089 l -0.336799,0.60535 c -0.207597,-0.1155 -0.411803,-0.23752 -0.612278,-0.36572 m -1.537493,-1.16858 c -0.183531,-0.16424 -0.36212,-0.33409 -0.535406,-0.50918 l -0.494787,0.48967 c 0.322088,0.32549 0.66167,0.63368 1.016725,0.92257 l 0.878888,-1.07839 c -0.509069,-0.41567 -0.983551,-0.87584 -1.415045,-1.37211 l -1.050856,0.91248 c -0.483229,-0.55716 -0.917892,-1.15601 -1.29559,-1.78817 l 1.189318,-0.71307 c 0.214841,0.35693 0.450548,0.70261 0.704945,1.03486 l -0.552477,0.42201 c -0.144721,-0.18946 -0.283728,-0.38312 -0.416692,-0.58065 M 15.28483,148.1535 c -0.100907,-0.22283 -0.194411,-0.44879 -0.280136,-0.67752 l -0.646371,0.24223 c 0.15993,0.428 0.34499,0.84635 0.553169,1.25305 l 1.231175,-0.63265 c -0.298836,-0.57906 -0.543253,-1.18278 -0.724852,-1.80278 l -1.324012,0.3876 c -0.206963,-0.70727 -0.34552,-1.43639 -0.407279,-2.17898 l 1.383342,-0.10907 c 0.03032,0.41051 0.08955,0.81781 0.17553,1.21974 l -0.674703,0.14522 c -0.04979,-0.23139 -0.09157,-0.46464 -0.124963,-0.69943 m -0.081,-1.92805 c 0.01434,-0.24546 0.03805,-0.48967 0.07065,-0.73229 l -0.685599,-0.0922 c -0.06268,0.45629 -0.09659,0.91861 -0.09974,1.38495 h 1.396572 c -0.0053,-0.64876 0.06409,-1.29268 0.19913,-1.92337 l -1.349354,-0.29067 c 0.156353,-0.72198 0.384144,-1.42516 0.674979,-2.1011 l 1.268645,0.54783 c -0.164639,0.3797 -0.305943,0.76817 -0.421735,1.16326 l -0.661977,-0.19391 c 0.0665,-0.22702 0.140679,-0.4518 0.222197,-0.67401 m 0.815451,-1.73925 c 0.12254,-0.21244 0.251931,-0.42118 0.387806,-0.62584 l -0.578348,-0.38395 c -0.252418,0.38136 -0.483722,0.77639 -0.691907,1.18308 l 1.231176,0.63265 c 0.298841,-0.57905 0.652097,-1.13343 1.05138,-1.65474 l -1.104832,-0.84419 c 0.446977,-0.58624 0.945568,-1.13382 1.487366,-1.63436 l 0.944991,1.02222 c -0.307758,0.28471 -0.600239,0.58627 -0.875262,0.90249 l -0.525362,-0.45632 c 0.15649,-0.18016 0.318336,-0.35578 0.485203,-0.5265 m 1.456738,-1.27075 c 0.197665,-0.14636 0.399706,-0.28654 0.605753,-0.42018 l -0.377635,-0.58226 c -0.384016,0.24828 -0.754554,0.51787 -1.109615,0.80676 l 0.878883,1.07839 c 0.509069,-0.41567 1.052724,-0.78682 1.622578,-1.10508 l -0.673407,-1.2108 c 0.643922,-0.3568 1.319625,-0.65513 2.018708,-0.88656 l 0.434424,1.3097 c -0.391176,0.13003 -0.775128,0.28496 -1.149678,0.46262 l -0.295296,-0.62527 c 0.214429,-0.10127 0.43189,-0.19566 0.652055,-0.28285 m 1.838113,-0.54235 c 0.239713,-0.0472 0.481336,-0.0857 0.724488,-0.11529 l -0.08348,-0.68713 c -0.457454,0.057 -0.909072,0.14303 -1.352857,0.25597 l 0.339688,1.33723 c 0.625618,-0.15859 1.265994,-0.25284 1.912726,-0.27436 l -0.05508,-1.39051 c 0.135197,-0.006 0.270785,-0.01 0.406717,-0.0105 0.615305,0.004 1.223619,0.0619 1.820323,0.16854 l -0.240559,1.36038 c -0.404791,-0.0707 -0.814345,-0.11401 -1.226481,-0.12781 l 0.02768,-0.69524 c 0.238427,0.009 0.475774,0.0278 0.711719,0.0546 m 1.876022,0.39733 c 0.233077,0.0726 0.463688,0.15325 0.691463,0.24163 l 0.249756,-0.64366 c -0.426096,-0.16481 -0.862045,-0.30469 -1.305825,-0.41763 l -0.339688,1.33723 c 0.625618,0.1586 1.236477,0.38152 1.824186,0.66039 l 0.590793,-1.25045 c 0.665824,0.31337 1.302909,0.68827 1.902862,1.11631 l -0.808392,1.13017 c -0.339666,-0.24366 -0.692144,-0.46801 -1.055264,-0.67088 l 0.336799,-0.60535 c 0.207597,0.1155 0.411803,0.23752 0.612277,0.36571 m 1.537489,1.16859 c 0.183531,0.16423 0.362119,0.33409 0.535405,0.50918 l 0.494792,-0.48967 c -0.322093,-0.32549 -0.66167,-0.63368 -1.01673,-0.92257 l -0.878887,1.07839 c 0.509068,0.41566 0.983551,0.87583 1.415044,1.37211 l 1.050851,-0.91248 c 0.483235,0.55716 0.917898,1.15601 1.295596,1.78817 l -1.189318,0.71307 c -0.214842,-0.35693 -0.450548,-0.70261 -0.704951,-1.03486 l 0.552482,-0.42201 c 0.144722,0.18946 0.283729,0.38312 0.416692,0.58064 m 0.939038,1.67992 c 0.100913,0.22283 0.194416,0.44879 0.280136,0.67753 l 0.646377,-0.24224 c -0.15993,-0.428 -0.34499,-0.84635 -0.55317,-1.25304 l -1.231175,0.63264 c 0.298837,0.57906 0.543248,1.18278 0.724848,1.80278 l 1.324017,-0.3876 c 0.206957,0.70727 0.345514,1.43639 0.407278,2.17898 l -1.383347,0.10907 c -0.03032,-0.41051 -0.08955,-0.81781 -0.17553,-1.21974 l 0.674703,-0.14522 c 0.04979,0.23139 0.09157,0.46464 0.124963,0.69944"
         style="fill:none;stroke:#f7ebe8;stroke-width:0.312611;stroke-linecap:round;stroke-linejoin:bevel;stroke-dasharray:none;stroke-opacity:1;paint-order:stroke fill markers" />
    </g>
  </g>
</svg>
